Interstate-Condensed_Hairline.ufo
<glyph name="exclam" format="1">
  <advance width="157"/>
  <unicode hex="0021"/>
  <outline>
    <contour>
      <point x="77" y="130" type="line"/>
      <point x="77" y="371" type="line"/>
      <point x="77" y="700" type="line"/>
      <point x="81" y="700" type="line"/>
      <point x="81" y="371" type="line"/>
      <point x="81" y="130" type="line"/>
    </contour>
    <contour>
      <point x="77" y="0" type="line"/>
      <point x="77" y="60" type="line"/>
      <point x="81" y="60" type="line"/>
      <point x="81" y="0" type="line"/>
    </contour>
  </outline>
</glyph>
<glyph name="quotedbl" format="1">
  <advance width="274"/>
  <unicode hex="0022"/>
  <outline>
    <contour>
      <point x="197" y="500" type="line"/>
      <point x="197" y="700" type="line"/>
      <point x="201" y="700" type="line"/>
      <point x="201" y="500" type="line"/>
    </contour>
    <contour>
      <point x="73" y="500" type="line"/>
      <point x="73" y="700" type="line"/>
      <point x="77" y="700" type="line"/>
      <point x="77" y="500" type="line"/>
    </contour>
  </outline>
</glyph>
<glyph name="numbersign" format="1">
  <advance width="446"/>
  <unicode hex="0023"/>
  <outline>
    <contour>
      <point x="124" y="0" type="line"/>
      <point x="124" y="212" type="line"/>
      <point x="32" y="212" type="line"/>
      <point x="32" y="216" type="line"/>
      <point x="124" y="216" type="line"/>
      <point x="124" y="483" type="line"/>
      <point x="32" y="483" type="line"/>
      <point x="32" y="487" type="line"/>
      <point x="124" y="487" type="line"/>
      <point x="124" y="700" type="line"/>
      <point x="128" y="700" type="line"/>
      <point x="128" y="487" type="line"/>
      <point x="318" y="487" type="line"/>
      <point x="318" y="700" type="line"/>
      <point x="322" y="700" type="line"/>
      <point x="322" y="487" type="line"/>
      <point x="414" y="487" type="line"/>
      <point x="414" y="483" type="line"/>
      <point x="322" y="483" type="line"/>
      <point x="322" y="216" type="line"/>
      <point x="414" y="216" type="line"/>
      <point x="414" y="212" type="line"/>
      <point x="322" y="212" type="line"/>
      <point x="322" y="0" type="line"/>
      <point x="318" y="0" type="line"/>
      <point x="318" y="212" type="line"/>
      <point x="128" y="212" type="line"/>
      <point x="128" y="0" type="line"/>
    </contour>
    <contour>
      <point x="128" y="216" type="line"/>
      <point x="318" y="216" type="line"/>
      <point x="318" y="483" type="line"/>
      <point x="128" y="483" type="line"/>
    </contour>
  </outline>
</glyph>
<glyph name="dollar" format="1">
  <advance width="373"/>
  <unicode hex="0024"/>
  <outline>
    <contour>
      <point x="180" y="-79" type="line"/>
      <point x="180" y="-9" type="line"/>
      <point x="116" y="-6"/>
      <point x="72" y="26"/>
      <point x="43" y="112" type="curve"/>
      <point x="47" y="112" type="line"/>
      <point x="74" y="32"/>
      <point x="117" y="-5"/>
      <point x="184" y="-5" type="curve" smooth="yes"/>
      <point x="261" y="-5"/>
      <point x="319" y="50"/>
      <point x="319" y="153" type="curve" smooth="yes"/>
      <point x="319" y="236"/>
      <point x="295" y="287"/>
      <point x="182" y="370" type="curve" smooth="yes"/>
      <point x="78" y="446"/>
      <point x="51" y="490"/>
      <point x="51" y="563" type="curve" smooth="yes"/>
      <point x="51" y="647"/>
      <point x="97" y="707"/>
      <point x="180" y="709" type="curve"/>
      <point x="180" y="779" type="line"/>
      <point x="184" y="779" type="line"/>
      <point x="184" y="709" type="line"/>
      <point x="248" y="708"/>
      <point x="290" y="676"/>
      <point x="318" y="605" type="curve"/>
      <point x="314" y="604" type="line"/>
      <point x="285" y="674"/>
      <point x="246" y="705"/>
      <point x="183" y="705" type="curve" smooth="yes"/>
      <point x="100" y="705"/>
      <point x="55" y="646"/>
      <point x="55" y="563" type="curve" smooth="yes"/>
      <point x="55" y="492"/>
      <point x="82" y="449"/>
      <point x="185" y="373" type="curve" smooth="yes"/>
      <point x="299" y="290"/>
      <point x="323" y="238"/>
      <point x="323" y="153" type="curve" smooth="yes"/>
      <point x="323" y="48"/>
      <point x="263" y="-8"/>
      <point x="184" y="-9" type="curve"/>
      <point x="184" y="-79" type="line"/>
    </contour>
  </outline>
</glyph>
<glyph name="ampersand" format="1">
  <advance width="418"/>
  <unicode hex="0026"/>
  <outline>
    <contour>
      <point x="162" y="-9" type="curve" smooth="yes"/>
      <point x="91" y="-9"/>
      <point x="44" y="49"/>
      <point x="44" y="150" type="curve" smooth="yes"/>
      <point x="44" y="248"/>
      <point x="92" y="333"/>
      <point x="162" y="397" type="curve"/>
      <point x="144" y="432" type="line" smooth="yes"/>
      <point x="109" y="500"/>
      <point x="94" y="546"/>
      <point x="94" y="598" type="curve" smooth="yes"/>
      <point x="94" y="667"/>
      <point x="134" y="709"/>
      <point x="195" y="709" type="curve" smooth="yes"/>
      <point x="254" y="709"/>
      <point x="290" y="671"/>
      <point x="316" y="607" type="curve"/>
      <point x="312" y="606" type="line"/>
      <point x="287" y="668"/>
      <point x="251" y="705"/>
      <point x="195" y="705" type="curve" smooth="yes"/>
      <point x="136" y="705"/>
      <point x="98" y="664"/>
      <point x="98" y="598" type="curve" smooth="yes"/>
      <point x="98" y="548"/>
      <point x="113" y="499"/>
      <point x="148" y="433" type="curve" smooth="yes"/>
      <point x="311" y="123" type="line"/>
      <point x="337" y="182"/>
      <point x="356" y="259"/>
      <point x="370" y="345" type="curve"/>
      <point x="374" y="345" type="line"/>
      <point x="360" y="257"/>
      <point x="339" y="176"/>
      <point x="313" y="118" type="curve"/>
      <point x="375" y="0" type="line"/>
      <point x="371" y="0" type="line"/>
      <point x="311" y="114" type="line"/>
      <point x="278" y="40"/>
      <point x="229" y="-9"/>
    </contour>
    <contour>
      <point x="162" y="-5" type="curve" smooth="yes"/>
      <point x="227" y="-5"/>
      <point x="275" y="42"/>
      <point x="309" y="118" type="curve"/>
      <point x="164" y="394" type="line"/>
      <point x="95" y="330"/>
      <point x="48" y="246"/>
      <point x="48" y="150" type="curve" smooth="yes"/>
      <point x="48" y="51"/>
      <point x="93" y="-5"/>
    </contour>
  </outline>
</glyph>
<glyph name="quotesingle" format="1">
  <advance width="151"/>
  <unicode hex="0027"/>
  <outline>
    <contour>
      <point x="73" y="500" type="line"/>
      <point x="73" y="700" type="line"/>
      <point x="77" y="700" type="line"/>
      <point x="77" y="500" type="line"/>
    </contour>
  </outline>
</glyph>
<glyph name="parenleft" format="1">
  <advance width="237"/>
  <unicode hex="0028"/>
  <outline>
    <contour>
      <point x="180" y="-111" type="line"/>
      <point x="110" y="-2"/>
      <point x="58" y="135"/>
      <point x="58" y="301" type="curve" smooth="yes"/>
      <point x="58" y="473"/>
      <point x="105" y="604"/>
      <point x="180" y="716" type="curve"/>
      <point x="184" y="714" type="line"/>
      <point x="109" y="602"/>
      <point x="62" y="473"/>
      <point x="62" y="301" type="curve" smooth="yes"/>
      <point x="62" y="136"/>
      <point x="114" y="0"/>
      <point x="184" y="-109" type="curve"/>
    </contour>
  </outline>
</glyph>
<glyph name="parenright" format="1">
  <advance width="237"/>
  <unicode hex="0029"/>
  <outline>
    <contour>
      <point x="56" y="-111" type="curve"/>
      <point x="53" y="-109" type="line"/>
      <point x="128" y="2"/>
      <point x="175" y="132"/>
      <point x="175" y="304" type="curve" smooth="yes"/>
      <point x="175" y="469"/>
      <point x="123" y="604"/>
      <point x="53" y="714" type="curve"/>
      <point x="57" y="716" type="line"/>
      <point x="127" y="606"/>
      <point x="179" y="470"/>
      <point x="179" y="304" type="curve" smooth="yes"/>
      <point x="179" y="131"/>
      <point x="132" y="0"/>
    </contour>
  </outline>
</glyph>
<glyph name="asterisk" format="1">
  <advance width="341"/>
  <unicode hex="002A"/>
  <outline>
    <contour>
      <point x="169" y="405" type="line"/>
      <point x="169" y="550" type="line"/>
      <point x="45" y="477" type="line"/>
      <point x="43" y="481" type="line"/>
      <point x="166" y="553" type="line"/>
      <point x="43" y="624" type="line"/>
      <point x="45" y="628" type="line"/>
      <point x="169" y="556" type="line"/>
      <point x="169" y="700" type="line"/>
      <point x="173" y="700" type="line"/>
      <point x="173" y="556" type="line"/>
      <point x="296" y="628" type="line"/>
      <point x="298" y="624" type="line"/>
      <point x="175" y="553" type="line"/>
      <point x="298" y="481" type="line"/>
      <point x="296" y="477" type="line"/>
      <point x="173" y="550" type="line"/>
      <point x="173" y="405" type="line"/>
    </contour>
  </outline>
</glyph>
<glyph name="plus" format="1">
  <advance width="376"/>
  <unicode hex="002B"/>
  <outline>
    <contour>
      <point x="187" y="169" type="line"/>
      <point x="187" y="342" type="line"/>
      <point x="33" y="342" type="line"/>
      <point x="33" y="346" type="line"/>
      <point x="187" y="346" type="line"/>
      <point x="187" y="519" type="line"/>
      <point x="191" y="519" type="line"/>
      <point x="191" y="346" type="line"/>
      <point x="343" y="346" type="line"/>
      <point x="343" y="342" type="line"/>
      <point x="191" y="342" type="line"/>
      <point x="191" y="169" type="line"/>
    </contour>
  </outline>
</glyph>
<glyph name="comma" format="1">
  <advance width="105"/>
  <unicode hex="002C"/>
  <outline>
    <contour>
      <point x="35" y="-68" type="line"/>
      <point x="53" y="60" type="line"/>
      <point x="57" y="60" type="line"/>
      <point x="39" y="-68" type="line"/>
    </contour>
  </outline>
</glyph>
<glyph name="hyphen" format="1">
  <advance width="237"/>
  <unicode hex="002D"/>
  <unicode hex="2010"/>
  <unicode hex="2011"/>
  <outline>
    <contour>
      <point x="34" y="361" type="line"/>
      <point x="34" y="365" type="line"/>
      <point x="203" y="365" type="line"/>
      <point x="203" y="361" type="line"/>
    </contour>
  </outline>
</glyph>
<glyph name="period" format="1">
  <advance width="105"/>
  <unicode hex="002E"/>
  <outline>
    <contour>
      <point x="50" y="0" type="line"/>
      <point x="50" y="60" type="line"/>
      <point x="54" y="60" type="line"/>
      <point x="54" y="0" type="line"/>
    </contour>
  </outline>
</glyph>
<glyph name="zero" format="1">
  <advance width="439"/>
  <unicode hex="0030"/>
  <outline>
    <contour>
      <point x="219" y="-9" type="curve" smooth="yes"/>
      <point x="120" y="-9"/>
      <point x="53" y="96"/>
      <point x="53" y="350" type="curve" smooth="yes"/>
      <point x="53" y="604"/>
      <point x="120" y="709"/>
      <point x="219" y="709" type="curve" smooth="yes"/>
      <point x="319" y="709"/>
      <point x="385" y="604"/>
      <point x="385" y="350" type="curve" smooth="yes"/>
      <point x="385" y="96"/>
      <point x="319" y="-9"/>
    </contour>
    <contour>
      <point x="219" y="-5" type="curve" smooth="yes"/>
      <point x="316" y="-5"/>
      <point x="381" y="99"/>
      <point x="381" y="350" type="curve" smooth="yes"/>
      <point x="381" y="601"/>
      <point x="316" y="705"/>
      <point x="219" y="705" type="curve" smooth="yes"/>
      <point x="123" y="705"/>
      <point x="57" y="601"/>
      <point x="57" y="350" type="curve" smooth="yes"/>
      <point x="57" y="99"/>
      <point x="123" y="-5"/>
    </contour>
  </outline>
</glyph>
<glyph name="one" format="1">
  <advance width="187"/>
  <unicode hex="0031"/>
  <outline>
    <contour>
      <point x="110" y="0" type="line"/>
      <point x="110" y="696" type="line"/>
      <point x="96" y="666"/>
      <point x="56" y="639"/>
      <point x="16" y="636" type="curve"/>
      <point x="16" y="640" type="line"/>
      <point x="55" y="642"/>
      <point x="96" y="670"/>
      <point x="110" y="704" type="curve"/>
      <point x="114" y="704" type="line"/>
      <point x="114" y="0" type="line"/>
    </contour>
  </outline>
</glyph>
<glyph name="two" format="1">
  <advance width="376"/>
  <unicode hex="0032"/>
  <outline>
    <contour>
      <point x="40" y="0" type="line"/>
      <point x="42" y="108"/>
      <point x="77" y="198"/>
      <point x="188" y="308" type="curve" smooth="yes"/>
      <point x="284" y="403"/>
      <point x="317" y="454"/>
      <point x="317" y="548" type="curve" smooth="yes"/>
      <point x="317" y="642"/>
      <point x="275" y="705"/>
      <point x="193" y="705" type="curve" smooth="yes"/>
      <point x="130" y="705"/>
      <point x="85" y="659"/>
      <point x="60" y="589" type="curve"/>
      <point x="56" y="590" type="line"/>
      <point x="82" y="663"/>
      <point x="130" y="709"/>
      <point x="193" y="709" type="curve" smooth="yes"/>
      <point x="276" y="709"/>
      <point x="321" y="645"/>
      <point x="321" y="548" type="curve" smooth="yes"/>
      <point x="321" y="453"/>
      <point x="288" y="402"/>
      <point x="191" y="306" type="curve" smooth="yes"/>
      <point x="81" y="198"/>
      <point x="46" y="108"/>
      <point x="44" y="4" type="curve"/>
      <point x="325" y="4" type="line"/>
      <point x="325" y="0" type="line"/>
    </contour>
  </outline>
</glyph>
<glyph name="three" format="1">
  <advance width="358"/>
  <unicode hex="0033"/>
  <outline>
    <contour>
      <point x="164" y="-9" type="curve" smooth="yes"/>
      <point x="108" y="-9"/>
      <point x="54" y="28"/>
      <point x="33" y="105" type="curve"/>
      <point x="37" y="105" type="line"/>
      <point x="58" y="32"/>
      <point x="109" y="-5"/>
      <point x="164" y="-5" type="curve" smooth="yes"/>
      <point x="252" y="-5"/>
      <point x="309" y="71"/>
      <point x="309" y="185" type="curve" smooth="yes"/>
      <point x="309" y="316"/>
      <point x="246" y="375"/>
      <point x="160" y="375" type="curve" smooth="yes"/>
      <point x="139" y="375" type="line"/>
      <point x="139" y="379" type="line"/>
      <point x="157" y="379" type="line" smooth="yes"/>
      <point x="254" y="379"/>
      <point x="295" y="454"/>
      <point x="295" y="547" type="curve" smooth="yes"/>
      <point x="295" y="644"/>
      <point x="245" y="705"/>
      <point x="169" y="705" type="curve" smooth="yes"/>
      <point x="108" y="705"/>
      <point x="63" y="658"/>
      <point x="47" y="599" type="curve"/>
      <point x="43" y="599" type="line"/>
      <point x="59" y="661"/>
      <point x="107" y="709"/>
      <point x="169" y="709" type="curve" smooth="yes"/>
      <point x="247" y="709"/>
      <point x="299" y="646"/>
      <point x="299" y="547" type="curve" smooth="yes"/>
      <point x="299" y="456"/>
      <point x="260" y="388"/>
      <point x="181" y="377" type="curve"/>
      <point x="256" y="368"/>
      <point x="313" y="310"/>
      <point x="313" y="185" type="curve" smooth="yes"/>
      <point x="313" y="69"/>
      <point x="254" y="-9"/>
    </contour>
  </outline>
</glyph>
<glyph name="four" format="1">
  <advance width="382"/>
  <unicode hex="0034"/>
  <outline>
    <contour>
      <point x="280" y="0" type="line"/>
      <point x="280" y="203" type="line"/>
      <point x="19" y="203" type="line"/>
      <point x="19" y="205" type="line"/>
      <point x="280" y="704" type="line"/>
      <point x="284" y="704" type="line"/>
      <point x="284" y="207" type="line"/>
      <point x="359" y="207" type="line"/>
      <point x="359" y="203" type="line"/>
      <point x="284" y="203" type="line"/>
      <point x="284" y="0" type="line"/>
    </contour>
    <contour>
      <point x="25" y="207" type="line"/>
      <point x="280" y="207" type="line"/>
      <point x="280" y="694" type="line"/>
    </contour>
  </outline>
</glyph>
<glyph name="five" format="1">
  <advance width="374"/>
  <unicode hex="0035"/>
  <outline>
    <contour>
      <point x="180" y="-9" type="curve" smooth="yes"/>
      <point x="114" y="-9"/>
      <point x="64" y="37"/>
      <point x="47" y="106" type="curve"/>
      <point x="51" y="106" type="line"/>
      <point x="69" y="39"/>
      <point x="116" y="-5"/>
      <point x="180" y="-5" type="curve" smooth="yes"/>
      <point x="267" y="-5"/>
      <point x="336" y="71"/>
      <point x="336" y="211" type="curve" smooth="yes"/>
      <point x="336" y="341"/>
      <point x="286" y="416"/>
      <point x="191" y="416" type="curve" smooth="yes"/>
      <point x="123" y="416"/>
      <point x="83" y="370"/>
      <point x="62" y="339" type="curve"/>
      <point x="58" y="340" type="line"/>
      <point x="77" y="700" type="line"/>
      <point x="321" y="700" type="line"/>
      <point x="321" y="696" type="line"/>
      <point x="81" y="696" type="line"/>
      <point x="62" y="346" type="line"/>
      <point x="80" y="372"/>
      <point x="122" y="420"/>
      <point x="191" y="420" type="curve" smooth="yes"/>
      <point x="288" y="420"/>
      <point x="340" y="344"/>
      <point x="340" y="211" type="curve" smooth="yes"/>
      <point x="340" y="68"/>
      <point x="269" y="-9"/>
    </contour>
  </outline>
</glyph>
<glyph name="six" format="1">
  <advance width="406"/>
  <unicode hex="0036"/>
  <outline>
    <contour>
      <point x="215" y="-9" type="curve" smooth="yes"/>
      <point x="114" y="-9"/>
      <point x="54" y="77"/>
      <point x="54" y="239" type="curve" smooth="yes"/>
      <point x="54" y="356"/>
      <point x="72" y="456"/>
      <point x="110" y="533" type="curve" smooth="yes"/>
      <point x="148" y="610"/>
      <point x="205" y="670"/>
      <point x="281" y="705" type="curve"/>
      <point x="283" y="702" type="line"/>
      <point x="208" y="667"/>
      <point x="151" y="608"/>
      <point x="114" y="532" type="curve" smooth="yes"/>
      <point x="79" y="460"/>
      <point x="63" y="380"/>
      <point x="58" y="270" type="curve"/>
      <point x="75" y="363"/>
      <point x="123" y="425"/>
      <point x="213" y="425" type="curve" smooth="yes"/>
      <point x="306" y="425"/>
      <point x="366" y="351"/>
      <point x="366" y="211" type="curve" smooth="yes"/>
      <point x="366" y="86"/>
      <point x="307" y="-9"/>
    </contour>
    <contour>
      <point x="215" y="-5" type="curve" smooth="yes"/>
      <point x="304" y="-5"/>
      <point x="362" y="88"/>
      <point x="362" y="211" type="curve" smooth="yes"/>
      <point x="362" y="349"/>
      <point x="304" y="421"/>
      <point x="213" y="421" type="curve" smooth="yes"/>
      <point x="124" y="421"/>
      <point x="74" y="358"/>
      <point x="58" y="252" type="curve"/>
      <point x="58" y="247"/>
      <point x="58" y="243"/>
      <point x="58" y="239" type="curve" smooth="yes"/>
      <point x="58" y="81"/>
      <point x="116" y="-5"/>
    </contour>
  </outline>
</glyph>
<glyph name="seven" format="1">
  <advance width="343"/>
  <unicode hex="0037"/>
  <outline>
    <contour>
      <point x="131" y="0" type="line"/>
      <point x="136" y="323"/>
      <point x="200" y="530"/>
      <point x="307" y="696" type="curve"/>
      <point x="18" y="696" type="line"/>
      <point x="18" y="700" type="line"/>
      <point x="313" y="700" type="line"/>
      <point x="313" y="698" type="line"/>
      <point x="204" y="531"/>
      <point x="140" y="324"/>
      <point x="135" y="0" type="curve"/>
    </contour>
  </outline>
</glyph>
<glyph name="eight" format="1">
  <advance width="402"/>
  <unicode hex="0038"/>
  <outline>
    <contour>
      <point x="201" y="-9" type="curve" smooth="yes"/>
      <point x="111" y="-9"/>
      <point x="46" y="67"/>
      <point x="46" y="187" type="curve" smooth="yes"/>
      <point x="46" y="299"/>
      <point x="102" y="370"/>
      <point x="182" y="379" type="curve"/>
      <point x="114" y="387"/>
      <point x="62" y="449"/>
      <point x="62" y="543" type="curve" smooth="yes"/>
      <point x="62" y="640"/>
      <point x="122" y="709"/>
      <point x="201" y="709" type="curve" smooth="yes"/>
      <point x="280" y="709"/>
      <point x="341" y="640"/>
      <point x="341" y="543" type="curve" smooth="yes"/>
      <point x="341" y="449"/>
      <point x="288" y="387"/>
      <point x="220" y="379" type="curve"/>
      <point x="301" y="370"/>
      <point x="356" y="299"/>
      <point x="356" y="187" type="curve" smooth="yes"/>
      <point x="356" y="67"/>
      <point x="291" y="-9"/>
    </contour>
    <contour>
      <point x="201" y="381" type="curve" smooth="yes"/>
      <point x="281" y="381"/>
      <point x="337" y="447"/>
      <point x="337" y="543" type="curve" smooth="yes"/>
      <point x="337" y="638"/>
      <point x="278" y="705"/>
      <point x="201" y="705" type="curve" smooth="yes"/>
      <point x="124" y="705"/>
      <point x="66" y="638"/>
      <point x="66" y="543" type="curve" smooth="yes"/>
      <point x="66" y="447"/>
      <point x="121" y="381"/>
    </contour>
    <contour>
      <point x="201" y="-5" type="curve" smooth="yes"/>
      <point x="289" y="-5"/>
      <point x="352" y="69"/>
      <point x="352" y="187" type="curve" smooth="yes"/>
      <point x="352" y="305"/>
      <point x="290" y="377"/>
      <point x="201" y="377" type="curve" smooth="yes"/>
      <point x="112" y="377"/>
      <point x="50" y="305"/>
      <point x="50" y="187" type="curve" smooth="yes"/>
      <point x="50" y="69"/>
      <point x="113" y="-5"/>
    </contour>
  </outline>
</glyph>
<glyph name="nine" format="1">
  <advance width="406"/>
  <unicode hex="0039"/>
  <outline>
    <contour>
      <point x="191" y="709" type="curve" smooth="yes"/>
      <point x="292" y="709"/>
      <point x="352" y="623"/>
      <point x="352" y="461" type="curve" smooth="yes"/>
      <point x="352" y="344"/>
      <point x="334" y="244"/>
      <point x="296" y="167" type="curve" smooth="yes"/>
      <point x="258" y="90"/>
      <point x="201" y="30"/>
      <point x="125" y="-5" type="curve"/>
      <point x="123" y="-2" type="line"/>
      <point x="198" y="33"/>
      <point x="255" y="92"/>
      <point x="292" y="168" type="curve" smooth="yes"/>
      <point x="327" y="240"/>
      <point x="343" y="320"/>
      <point x="348" y="430" type="curve"/>
      <point x="331" y="337"/>
      <point x="283" y="275"/>
      <point x="193" y="275" type="curve" smooth="yes"/>
      <point x="100" y="275"/>
      <point x="40" y="349"/>
      <point x="40" y="489" type="curve" smooth="yes"/>
      <point x="40" y="614"/>
      <point x="99" y="709"/>
    </contour>
    <contour>
      <point x="191" y="705" type="curve" smooth="yes"/>
      <point x="102" y="705"/>
      <point x="44" y="612"/>
      <point x="44" y="489" type="curve" smooth="yes"/>
      <point x="44" y="351"/>
      <point x="102" y="279"/>
      <point x="193" y="279" type="curve" smooth="yes"/>
      <point x="282" y="279"/>
      <point x="332" y="342"/>
      <point x="348" y="448" type="curve"/>
      <point x="348" y="453"/>
      <point x="348" y="457"/>
      <point x="348" y="461" type="curve" smooth="yes"/>
      <point x="348" y="619"/>
      <point x="290" y="705"/>
    </contour>
  </outline>
</glyph>
<glyph name="colon" format="1">
  <advance width="105"/>
  <unicode hex="003A"/>
  <outline>
    <contour>
      <point x="50" y="465" type="line"/>
      <point x="50" y="525" type="line"/>
      <point x="54" y="525" type="line"/>
      <point x="54" y="465" type="line"/>
    </contour>
    <contour>
      <point x="50" y="0" type="line"/>
      <point x="50" y="60" type="line"/>
      <point x="54" y="60" type="line"/>
      <point x="54" y="0" type="line"/>
    </contour>
  </outline>
</glyph>
<glyph name="semicolon" format="1">
  <advance width="105"/>
  <unicode hex="003B"/>
  <outline>
    <contour>
      <point x="50" y="465" type="line"/>
      <point x="50" y="525" type="line"/>
      <point x="54" y="525" type="line"/>
      <point x="54" y="465" type="line"/>
    </contour>
    <contour>
      <point x="29" y="-68" type="line"/>
      <point x="47" y="60" type="line"/>
      <point x="51" y="60" type="line"/>
      <point x="33" y="-68" type="line"/>
    </contour>
  </outline>
</glyph>
<glyph name="less" format="1">
  <advance width="275"/>
  <unicode hex="003C"/>
  <outline>
    <contour>
      <point x="221" y="145" type="line"/>
      <point x="31" y="343" type="line"/>
      <point x="31" y="345" type="line"/>
      <point x="221" y="543" type="line"/>
      <point x="224" y="540" type="line"/>
      <point x="36" y="344" type="line"/>
      <point x="224" y="148" type="line"/>
    </contour>
  </outline>
</glyph>
<glyph name="equal" format="1">
  <advance width="416"/>
  <unicode hex="003D"/>
  <outline>
    <contour>
      <point x="56" y="421" type="line"/>
      <point x="56" y="425" type="line"/>
      <point x="360" y="425" type="line"/>
      <point x="360" y="421" type="line"/>
    </contour>
    <contour>
      <point x="56" y="263" type="line"/>
      <point x="56" y="267" type="line"/>
      <point x="360" y="267" type="line"/>
      <point x="360" y="263" type="line"/>
    </contour>
  </outline>
</glyph>
<glyph name="greater" format="1">
  <advance width="275"/>
  <unicode hex="003E"/>
  <outline>
    <contour>
      <point x="54" y="145" type="line"/>
      <point x="51" y="148" type="line"/>
      <point x="239" y="344" type="line"/>
      <point x="51" y="540" type="line"/>
      <point x="54" y="543" type="line"/>
      <point x="244" y="345" type="line"/>
      <point x="244" y="343" type="line"/>
    </contour>
  </outline>
</glyph>
<glyph name="question" format="1">
  <advance width="359"/>
  <unicode hex="003F"/>
  <outline>
    <contour>
      <point x="163" y="130" type="line"/>
      <point x="163" y="266"/>
      <point x="175" y="313"/>
      <point x="222" y="374" type="curve" smooth="yes"/>
      <point x="273" y="442"/>
      <point x="300" y="495"/>
      <point x="300" y="567" type="curve" smooth="yes"/>
      <point x="300" y="651"/>
      <point x="251" y="705"/>
      <point x="181" y="705" type="curve" smooth="yes"/>
      <point x="117" y="705"/>
      <point x="70" y="661"/>
      <point x="43" y="581" type="curve"/>
      <point x="39" y="581" type="line"/>
      <point x="66" y="664"/>
      <point x="116" y="709"/>
      <point x="181" y="709" type="curve" smooth="yes"/>
      <point x="254" y="709"/>
      <point x="304" y="653"/>
      <point x="304" y="567" type="curve" smooth="yes"/>
      <point x="304" y="493"/>
      <point x="275" y="438"/>
      <point x="225" y="372" type="curve" smooth="yes"/>
      <point x="178" y="310"/>
      <point x="167" y="264"/>
      <point x="167" y="130" type="curve"/>
    </contour>
    <contour>
      <point x="163" y="0" type="line"/>
      <point x="163" y="60" type="line"/>
      <point x="167" y="60" type="line"/>
      <point x="167" y="0" type="line"/>
    </contour>
  </outline>
</glyph>
<glyph name="at" format="1">
  <advance width="595"/>
  <unicode hex="0040"/>
  <outline>
    <contour>
      <point x="298" y="-9" type="curve" smooth="yes"/>
      <point x="140" y="-9"/>
      <point x="47" y="132"/>
      <point x="47" y="350" type="curve" smooth="yes"/>
      <point x="47" y="568"/>
      <point x="140" y="709"/>
      <point x="298" y="709" type="curve" smooth="yes"/>
      <point x="459" y="709"/>
      <point x="549" y="560"/>
      <point x="549" y="360" type="curve" smooth="yes"/>
      <point x="549" y="204"/>
      <point x="506" y="162"/>
      <point x="451" y="162" type="curve" smooth="yes"/>
      <point x="420" y="162"/>
      <point x="395" y="180"/>
      <point x="385" y="218" type="curve"/>
      <point x="360" y="188"/>
      <point x="325" y="162"/>
      <point x="285" y="162" type="curve" smooth="yes"/>
      <point x="234" y="162"/>
      <point x="188" y="192"/>
      <point x="188" y="278" type="curve" smooth="yes"/>
      <point x="188" y="365"/>
      <point x="232" y="401"/>
      <point x="288" y="401" type="curve" smooth="yes"/>
      <point x="326" y="401"/>
      <point x="357" y="387"/>
      <point x="382" y="367" type="curve"/>
      <point x="382" y="458" type="line" smooth="yes"/>
      <point x="382" y="523"/>
      <point x="358" y="549"/>
      <point x="299" y="549" type="curve" smooth="yes"/>
      <point x="264" y="549"/>
      <point x="238" y="536"/>
      <point x="212" y="518" type="curve"/>
      <point x="210" y="522" type="line"/>
      <point x="234" y="539"/>
      <point x="264" y="553"/>
      <point x="299" y="553" type="curve" smooth="yes"/>
      <point x="360" y="553"/>
      <point x="386" y="527"/>
      <point x="386" y="458" type="curve" smooth="yes"/>
      <point x="386" y="249" type="line" smooth="yes"/>
      <point x="386" y="194"/>
      <point x="414" y="166"/>
      <point x="451" y="166" type="curve" smooth="yes"/>
      <point x="504" y="166"/>
      <point x="545" y="208"/>
      <point x="545" y="360" type="curve" smooth="yes"/>
      <point x="545" y="558"/>
      <point x="457" y="705"/>
      <point x="298" y="705" type="curve" smooth="yes"/>
      <point x="142" y="705"/>
      <point x="51" y="566"/>
      <point x="51" y="350" type="curve" smooth="yes"/>
      <point x="51" y="134"/>
      <point x="142" y="-5"/>
      <point x="298" y="-5" type="curve" smooth="yes"/>
      <point x="343" y="-5"/>
      <point x="390" y="12"/>
      <point x="417" y="30" type="curve"/>
      <point x="419" y="27" type="line"/>
      <point x="391" y="8"/>
      <point x="343" y="-9"/>
    </contour>
    <contour>
      <point x="285" y="166" type="curve" smooth="yes"/>
      <point x="323" y="166"/>
      <point x="359" y="192"/>
      <point x="384" y="223" type="curve"/>
      <point x="383" y="231"/>
      <point x="382" y="240"/>
      <point x="382" y="249" type="curve" smooth="yes"/>
      <point x="382" y="363" type="line"/>
      <point x="354" y="383"/>
      <point x="326" y="397"/>
      <point x="288" y="397" type="curve" smooth="yes"/>
      <point x="233" y="397"/>
      <point x="192" y="361"/>
      <point x="192" y="278" type="curve" smooth="yes"/>
      <point x="192" y="196"/>
      <point x="235" y="166"/>
    </contour>
  </outline>
</glyph>
<glyph name="A" format="1">
  <advance width="448"/>
  <unicode hex="0041"/>
  <outline>
    <contour>
      <point x="52" y="0" type="line"/>
      <point x="222" y="704" type="line"/>
      <point x="226" y="704" type="line"/>
      <point x="396" y="0" type="line"/>
      <point x="392" y="0" type="line"/>
      <point x="341" y="211" type="line"/>
      <point x="107" y="211" type="line"/>
      <point x="56" y="0" type="line"/>
    </contour>
    <contour>
      <point x="108" y="215" type="line"/>
      <point x="340" y="215" type="line"/>
      <point x="224" y="696" type="line"/>
    </contour>
  </outline>
</glyph>
<glyph name="B" format="1">
  <advance width="400"/>
  <unicode hex="0042"/>
  <outline>
    <contour>
      <point x="72" y="0" type="line"/>
      <point x="72" y="700" type="line"/>
      <point x="176" y="700" type="line" smooth="yes"/>
      <point x="265" y="700"/>
      <point x="328" y="655"/>
      <point x="328" y="544" type="curve" smooth="yes"/>
      <point x="328" y="447"/>
      <point x="273" y="390"/>
      <point x="200" y="379" type="curve"/>
      <point x="279" y="373"/>
      <point x="356" y="322"/>
      <point x="356" y="190" type="curve" smooth="yes"/>
      <point x="356" y="60"/>
      <point x="290" y="0"/>
      <point x="181" y="0" type="curve" smooth="yes"/>
    </contour>
    <contour>
      <point x="76" y="381" type="line"/>
      <point x="174" y="381" type="line" smooth="yes"/>
      <point x="261" y="381"/>
      <point x="324" y="443"/>
      <point x="324" y="544" type="curve" smooth="yes"/>
      <point x="324" y="653"/>
      <point x="262" y="696"/>
      <point x="176" y="696" type="curve" smooth="yes"/>
      <point x="76" y="696" type="line"/>
    </contour>
    <contour>
      <point x="76" y="4" type="line"/>
      <point x="181" y="4" type="line" smooth="yes"/>
      <point x="286" y="4"/>
      <point x="352" y="62"/>
      <point x="352" y="190" type="curve" smooth="yes"/>
      <point x="352" y="321"/>
      <point x="276" y="377"/>
      <point x="174" y="377" type="curve" smooth="yes"/>
      <point x="76" y="377" type="line"/>
    </contour>
  </outline>
</glyph>
<glyph name="C" format="1">
  <advance width="409"/>
  <unicode hex="0043"/>
  <outline>
    <contour>
      <point x="360" y="126" type="line"/>
      <point x="352" y="94"/>
      <point x="321" y="-9"/>
      <point x="228" y="-9" type="curve" smooth="yes"/>
      <point x="130" y="-9"/>
      <point x="56" y="96"/>
      <point x="56" y="350" type="curve" smooth="yes"/>
      <point x="56" y="604"/>
      <point x="130" y="709"/>
      <point x="228" y="709" type="curve" smooth="yes"/>
      <point x="321" y="709"/>
      <point x="352" y="606"/>
      <point x="360" y="575" type="curve"/>
      <point x="356" y="574" type="line"/>
      <point x="348" y="603"/>
      <point x="319" y="705"/>
      <point x="228" y="705" type="curve" smooth="yes"/>
      <point x="132" y="705"/>
      <point x="60" y="600"/>
      <point x="60" y="350" type="curve" smooth="yes"/>
      <point x="60" y="100"/>
      <point x="132" y="-5"/>
      <point x="228" y="-5" type="curve" smooth="yes"/>
      <point x="319" y="-5"/>
      <point x="348" y="96"/>
      <point x="356" y="126" type="curve"/>
    </contour>
  </outline>
</glyph>
<glyph name="D" format="1">
  <advance width="443"/>
  <unicode hex="0044"/>
  <outline>
    <contour>
      <point x="72" y="0" type="line"/>
      <point x="72" y="700" type="line"/>
      <point x="176" y="700" type="line" smooth="yes"/>
      <point x="319" y="700"/>
      <point x="389" y="606"/>
      <point x="389" y="350" type="curve" smooth="yes"/>
      <point x="389" y="93"/>
      <point x="319" y="0"/>
      <point x="176" y="0" type="curve" smooth="yes"/>
    </contour>
    <contour>
      <point x="76" y="4" type="line"/>
      <point x="176" y="4" type="line" smooth="yes"/>
      <point x="318" y="4"/>
      <point x="385" y="97"/>
      <point x="385" y="350" type="curve" smooth="yes"/>
      <point x="385" y="602"/>
      <point x="318" y="696"/>
      <point x="176" y="696" type="curve" smooth="yes"/>
      <point x="76" y="696" type="line"/>
    </contour>
  </outline>
</glyph>
<glyph name="E" format="1">
  <advance width="348"/>
  <unicode hex="0045"/>
  <outline>
    <contour>
      <point x="72" y="0" type="line"/>
      <point x="72" y="700" type="line"/>
      <point x="309" y="700" type="line"/>
      <point x="309" y="696" type="line"/>
      <point x="76" y="696" type="line"/>
      <point x="76" y="376" type="line"/>
      <point x="230" y="376" type="line"/>
      <point x="230" y="372" type="line"/>
      <point x="76" y="372" type="line"/>
      <point x="76" y="4" type="line"/>
      <point x="321" y="4" type="line"/>
      <point x="321" y="0" type="line"/>
    </contour>
  </outline>
</glyph>
<glyph name="G" format="1">
  <advance width="437"/>
  <unicode hex="0047"/>
  <outline>
    <contour>
      <point x="60" y="350" type="curve" smooth="yes"/>
      <point x="60" y="100"/>
      <point x="131" y="-5"/>
      <point x="234" y="-5" type="curve" smooth="yes"/>
      <point x="324" y="-5"/>
      <point x="382" y="82"/>
      <point x="382" y="265" type="curve" smooth="yes"/>
      <point x="382" y="318" type="line"/>
      <point x="255" y="318" type="line"/>
      <point x="255" y="322" type="line"/>
      <point x="386" y="322" type="line"/>
      <point x="386" y="265" type="line" smooth="yes"/>
      <point x="386" y="79"/>
      <point x="326" y="-9"/>
      <point x="234" y="-9" type="curve" smooth="yes"/>
      <point x="129" y="-9"/>
      <point x="56" y="96"/>
      <point x="56" y="350" type="curve" smooth="yes"/>
      <point x="56" y="603"/>
      <point x="133" y="709"/>
      <point x="231" y="709" type="curve" smooth="yes"/>
      <point x="324" y="709"/>
      <point x="358" y="606"/>
      <point x="366" y="576" type="curve"/>
      <point x="362" y="574" type="line"/>
      <point x="354" y="604"/>
      <point x="322" y="705"/>
      <point x="231" y="705" type="curve" smooth="yes"/>
      <point x="135" y="705"/>
      <point x="60" y="600"/>
    </contour>
  </outline>
</glyph>
<glyph name="H" format="1">
  <advance width="450"/>
  <unicode hex="0048"/>
  <outline>
    <contour>
      <point x="72" y="0" type="line"/>
      <point x="72" y="700" type="line"/>
      <point x="76" y="700" type="line"/>
      <point x="76" y="373" type="line"/>
      <point x="375" y="373" type="line"/>
      <point x="375" y="700" type="line"/>
      <point x="379" y="700" type="line"/>
      <point x="379" y="0" type="line"/>
      <point x="375" y="0" type="line"/>
      <point x="375" y="369" type="line"/>
      <point x="76" y="369" type="line"/>
      <point x="76" y="0" type="line"/>
    </contour>
  </outline>
</glyph>
<glyph name="J" format="1">
  <advance width="375"/>
  <unicode hex="004A"/>
  <outline>
    <contour>
      <point x="306" y="700" type="line"/>
      <point x="306" y="196" type="line" smooth="yes"/>
      <point x="306" y="81"/>
      <point x="268" y="-9"/>
      <point x="170" y="-9" type="curve" smooth="yes"/>
      <point x="96" y="-9"/>
      <point x="48" y="41"/>
      <point x="32" y="147" type="curve"/>
      <point x="36" y="147" type="line"/>
      <point x="52" y="44"/>
      <point x="98" y="-5"/>
      <point x="170" y="-5" type="curve" smooth="yes"/>
      <point x="266" y="-5"/>
      <point x="302" y="83"/>
      <point x="302" y="196" type="curve" smooth="yes"/>
      <point x="302" y="700" type="line"/>
    </contour>
  </outline>
</glyph>
<glyph name="K" format="1">
  <advance width="393"/>
  <unicode hex="004B"/>
  <outline>
    <contour>
      <point x="72" y="0" type="line"/>
      <point x="72" y="700" type="line"/>
      <point x="76" y="700" type="line"/>
      <point x="76" y="274" type="line"/>
      <point x="341" y="700" type="line"/>
      <point x="345" y="700" type="line"/>
      <point x="172" y="423" type="line"/>
      <point x="362" y="0" type="line"/>
      <point x="358" y="-1" type="line"/>
      <point x="170" y="419" type="line"/>
      <point x="170" y="419"/>
      <point x="76" y="269"/>
      <point x="76" y="268" type="curve" smooth="yes"/>
      <point x="76" y="0" type="line"/>
    </contour>
  </outline>
</glyph>
<glyph name="L" format="1">
  <advance width="319"/>
  <unicode hex="004C"/>
  <outline>
    <contour>
      <point x="72" y="0" type="line"/>
      <point x="72" y="700" type="line"/>
      <point x="76" y="700" type="line"/>
      <point x="76" y="4" type="line"/>
      <point x="298" y="4" type="line"/>
      <point x="298" y="0" type="line"/>
    </contour>
  </outline>
</glyph>
<glyph name="M" format="1">
  <advance width="544"/>
  <unicode hex="004D"/>
  <outline>
    <contour>
      <point x="72" y="0" type="line"/>
      <point x="72" y="700" type="line"/>
      <point x="76" y="700" type="line"/>
      <point x="272" y="5" type="line"/>
      <point x="468" y="700" type="line"/>
      <point x="472" y="700" type="line"/>
      <point x="472" y="0" type="line"/>
      <point x="468" y="0" type="line"/>
      <point x="468" y="686" type="line"/>
      <point x="274" y="-2" type="line"/>
      <point x="270" y="-2" type="line"/>
      <point x="76" y="686" type="line"/>
      <point x="76" y="0" type="line"/>
    </contour>
  </outline>
</glyph>
<glyph name="N" format="1">
  <advance width="446"/>
  <unicode hex="004E"/>
  <outline>
    <contour>
      <point x="72" y="0" type="line"/>
      <point x="72" y="700" type="line"/>
      <point x="76" y="700" type="line"/>
      <point x="370" y="9" type="line"/>
      <point x="370" y="700" type="line"/>
      <point x="374" y="700" type="line"/>
      <point x="374" y="0" type="line"/>
      <point x="370" y="0" type="line"/>
      <point x="76" y="691" type="line"/>
      <point x="76" y="0" type="line"/>
    </contour>
  </outline>
</glyph>
<glyph name="O" format="1">
  <advance width="471"/>
  <unicode hex="004F"/>
  <outline>
    <contour>
      <point x="236" y="-9" type="curve" smooth="yes"/>
      <point x="132" y="-9"/>
      <point x="56" y="93"/>
      <point x="56" y="350" type="curve" smooth="yes"/>
      <point x="56" y="607"/>
      <point x="132" y="709"/>
      <point x="236" y="709" type="curve" smooth="yes"/>
      <point x="340" y="709"/>
      <point x="415" y="607"/>
      <point x="415" y="350" type="curve" smooth="yes"/>
      <point x="415" y="93"/>
      <point x="340" y="-9"/>
    </contour>
    <contour>
      <point x="236" y="-5" type="curve" smooth="yes"/>
      <point x="338" y="-5"/>
      <point x="411" y="97"/>
      <point x="411" y="350" type="curve" smooth="yes"/>
      <point x="411" y="603"/>
      <point x="338" y="705"/>
      <point x="236" y="705" type="curve" smooth="yes"/>
      <point x="134" y="705"/>
      <point x="60" y="603"/>
      <point x="60" y="350" type="curve" smooth="yes"/>
      <point x="60" y="97"/>
      <point x="134" y="-5"/>
    </contour>
  </outline>
</glyph>
<glyph name="P" format="1">
  <advance width="385"/>
  <unicode hex="0050"/>
  <outline>
    <contour>
      <point x="72" y="0" type="line"/>
      <point x="72" y="700" type="line"/>
      <point x="166" y="700" type="line" smooth="yes"/>
      <point x="279" y="700"/>
      <point x="349" y="658"/>
      <point x="349" y="519" type="curve" smooth="yes"/>
      <point x="349" y="383"/>
      <point x="280" y="335"/>
      <point x="161" y="335" type="curve" smooth="yes"/>
      <point x="76" y="335" type="line"/>
      <point x="76" y="0" type="line"/>
    </contour>
    <contour>
      <point x="76" y="339" type="line"/>
      <point x="161" y="339" type="line" smooth="yes"/>
      <point x="278" y="339"/>
      <point x="345" y="386"/>
      <point x="345" y="519" type="curve" smooth="yes"/>
      <point x="345" y="655"/>
      <point x="277" y="696"/>
      <point x="166" y="696" type="curve" smooth="yes"/>
      <point x="76" y="696" type="line"/>
    </contour>
  </outline>
</glyph>
<glyph name="Q" format="1">
  <advance width="471"/>
  <unicode hex="0051"/>
  <outline>
    <contour>
      <point x="373" y="-14" type="line"/>
      <point x="336" y="35" type="line"/>
      <point x="311" y="6"/>
      <point x="275" y="-9"/>
      <point x="236" y="-9" type="curve" smooth="yes"/>
      <point x="132" y="-9"/>
      <point x="56" y="93"/>
      <point x="56" y="350" type="curve" smooth="yes"/>
      <point x="56" y="607"/>
      <point x="132" y="709"/>
      <point x="236" y="709" type="curve" smooth="yes"/>
      <point x="340" y="709"/>
      <point x="415" y="607"/>
      <point x="415" y="350" type="curve" smooth="yes"/>
      <point x="415" y="191"/>
      <point x="386" y="89"/>
      <point x="339" y="38" type="curve"/>
      <point x="376" y="-11" type="line"/>
    </contour>
    <contour>
      <point x="236" y="-5" type="curve" smooth="yes"/>
      <point x="273" y="-5"/>
      <point x="307" y="9"/>
      <point x="334" y="38" type="curve"/>
      <point x="271" y="123" type="line"/>
      <point x="274" y="126" type="line"/>
      <point x="337" y="41" type="line"/>
      <point x="382" y="93"/>
      <point x="411" y="192"/>
      <point x="411" y="350" type="curve" smooth="yes"/>
      <point x="411" y="603"/>
      <point x="338" y="705"/>
      <point x="236" y="705" type="curve" smooth="yes"/>
      <point x="134" y="705"/>
      <point x="60" y="603"/>
      <point x="60" y="350" type="curve" smooth="yes"/>
      <point x="60" y="97"/>
      <point x="134" y="-5"/>
    </contour>
  </outline>
</glyph>
<glyph name="R" format="1">
  <advance width="401"/>
  <unicode hex="0052"/>
  <outline>
    <contour>
      <point x="72" y="0" type="line"/>
      <point x="72" y="700" type="line"/>
      <point x="163" y="700" type="line" smooth="yes"/>
      <point x="276" y="700"/>
      <point x="349" y="661"/>
      <point x="349" y="527" type="curve" smooth="yes"/>
      <point x="349" y="424"/>
      <point x="299" y="368"/>
      <point x="217" y="352" type="curve"/>
      <point x="350" y="0" type="line"/>
      <point x="346" y="-1" type="line"/>
      <point x="213" y="351" type="line"/>
      <point x="197" y="349"/>
      <point x="181" y="347"/>
      <point x="164" y="347" type="curve" smooth="yes"/>
      <point x="76" y="347" type="line"/>
      <point x="76" y="0" type="line"/>
    </contour>
    <contour>
      <point x="76" y="351" type="line"/>
      <point x="164" y="351" type="line" smooth="yes"/>
      <point x="274" y="351"/>
      <point x="345" y="405"/>
      <point x="345" y="527" type="curve" smooth="yes"/>
      <point x="345" y="659"/>
      <point x="273" y="696"/>
      <point x="163" y="696" type="curve" smooth="yes"/>
      <point x="76" y="696" type="line"/>
    </contour>
  </outline>
</glyph>
<glyph name="S" format="1">
  <advance width="381"/>
  <unicode hex="0053"/>
  <outline>
    <contour>
      <point x="50" y="112" type="line"/>
      <point x="74" y="40"/>
      <point x="120" y="-5"/>
      <point x="187" y="-5" type="curve" smooth="yes"/>
      <point x="264" y="-5"/>
      <point x="322" y="50"/>
      <point x="322" y="153" type="curve" smooth="yes"/>
      <point x="322" y="237"/>
      <point x="299" y="287"/>
      <point x="185" y="370" type="curve" smooth="yes"/>
      <point x="90" y="440"/>
      <point x="58" y="489"/>
      <point x="58" y="563" type="curve" smooth="yes"/>
      <point x="58" y="648"/>
      <point x="104" y="709"/>
      <point x="186" y="709" type="curve" smooth="yes"/>
      <point x="249" y="709"/>
      <point x="297" y="664"/>
      <point x="321" y="605" type="curve"/>
      <point x="317" y="603" type="line"/>
      <point x="295" y="659"/>
      <point x="248" y="705"/>
      <point x="186" y="705" type="curve" smooth="yes"/>
      <point x="106" y="705"/>
      <point x="62" y="646"/>
      <point x="62" y="563" type="curve" smooth="yes"/>
      <point x="62" y="491"/>
      <point x="94" y="442"/>
      <point x="187" y="374" type="curve" smooth="yes"/>
      <point x="303" y="289"/>
      <point x="326" y="239"/>
      <point x="326" y="153" type="curve" smooth="yes"/>
      <point x="326" y="48"/>
      <point x="266" y="-9"/>
      <point x="187" y="-9" type="curve" smooth="yes"/>
      <point x="119" y="-9"/>
      <point x="71" y="36"/>
      <point x="46" y="111" type="curve"/>
    </contour>
  </outline>
</glyph>
<glyph name="T" format="1">
  <advance width="370"/>
  <unicode hex="0054"/>
  <outline>
    <contour>
      <point x="182" y="0" type="line"/>
      <point x="182" y="696" type="line"/>
      <point x="29" y="696" type="line"/>
      <point x="29" y="700" type="line"/>
      <point x="339" y="700" type="line"/>
      <point x="339" y="696" type="line"/>
      <point x="186" y="696" type="line"/>
      <point x="186" y="0" type="line"/>
    </contour>
  </outline>
</glyph>
<glyph name="U" format="1">
  <advance width="446"/>
  <unicode hex="0055"/>
  <outline>
    <contour>
      <point x="223" y="-9" type="curve" smooth="yes"/>
      <point x="122" y="-9"/>
      <point x="68" y="53"/>
      <point x="68" y="178" type="curve" smooth="yes"/>
      <point x="68" y="700" type="line"/>
      <point x="72" y="700" type="line"/>
      <point x="72" y="178" type="line" smooth="yes"/>
      <point x="72" y="55"/>
      <point x="125" y="-5"/>
      <point x="223" y="-5" type="curve" smooth="yes"/>
      <point x="321" y="-5"/>
      <point x="374" y="55"/>
      <point x="374" y="178" type="curve" smooth="yes"/>
      <point x="374" y="700" type="line"/>
      <point x="378" y="700" type="line"/>
      <point x="378" y="178" type="line" smooth="yes"/>
      <point x="378" y="53"/>
      <point x="324" y="-9"/>
    </contour>
  </outline>
</glyph>
<glyph name="V" format="1">
  <advance width="441"/>
  <unicode hex="0056"/>
  <outline>
    <contour>
      <point x="219" y="-4" type="line"/>
      <point x="52" y="700" type="line"/>
      <point x="56" y="700" type="line"/>
      <point x="221" y="4" type="line"/>
      <point x="385" y="700" type="line"/>
      <point x="389" y="700" type="line"/>
      <point x="223" y="-4" type="line"/>
    </contour>
  </outline>
</glyph>
<glyph name="W" format="1">
  <advance width="612"/>
  <unicode hex="0057"/>
  <outline>
    <contour>
      <point x="168" y="-4" type="line"/>
      <point x="55" y="700" type="line"/>
      <point x="59" y="700" type="line"/>
      <point x="170" y="8" type="line"/>
      <point x="304" y="700" type="line"/>
      <point x="308" y="700" type="line"/>
      <point x="442" y="8" type="line"/>
      <point x="553" y="700" type="line"/>
      <point x="557" y="700" type="line"/>
      <point x="444" y="-4" type="line"/>
      <point x="440" y="-3" type="line"/>
      <point x="306" y="689" type="line"/>
      <point x="172" y="-3" type="line"/>
    </contour>
  </outline>
</glyph>
<glyph name="X" format="1">
  <advance width="397"/>
  <unicode hex="0058"/>
  <outline>
    <contour>
      <point x="44" y="0" type="line"/>
      <point x="197" y="363" type="line"/>
      <point x="55" y="700" type="line"/>
      <point x="59" y="701" type="line"/>
      <point x="199" y="368" type="line"/>
      <point x="339" y="700" type="line"/>
      <point x="343" y="700" type="line"/>
      <point x="201" y="363" type="line"/>
      <point x="354" y="0" type="line"/>
      <point x="350" y="-1" type="line"/>
      <point x="199" y="358" type="line"/>
      <point x="48" y="0" type="line"/>
    </contour>
  </outline>
</glyph>
<glyph name="Y" format="1">
  <advance width="406"/>
  <unicode hex="0059"/>
  <outline>
    <contour>
      <point x="201" y="0" type="line"/>
      <point x="201" y="301" type="line"/>
      <point x="40" y="700" type="line"/>
      <point x="44" y="700" type="line"/>
      <point x="203" y="307" type="line"/>
      <point x="362" y="700" type="line"/>
      <point x="366" y="700" type="line"/>
      <point x="205" y="301" type="line"/>
      <point x="205" y="0" type="line"/>
    </contour>
  </outline>
</glyph>
<glyph name="Z" format="1">
  <advance width="379"/>
  <unicode hex="005A"/>
  <outline>
    <contour>
      <point x="38" y="0" type="line"/>
      <point x="38" y="5" type="line"/>
      <point x="327" y="696" type="line"/>
      <point x="55" y="696" type="line"/>
      <point x="55" y="700" type="line"/>
      <point x="331" y="700" type="line"/>
      <point x="331" y="695" type="line"/>
      <point x="42" y="4" type="line"/>
      <point x="331" y="4" type="line"/>
      <point x="331" y="0" type="line"/>
    </contour>
  </outline>
</glyph>
<glyph name="bracketleft" format="1">
  <advance width="218"/>
  <unicode hex="005B"/>
  <outline>
    <contour>
      <point x="74" y="-110" type="line"/>
      <point x="74" y="700" type="line"/>
      <point x="182" y="700" type="line"/>
      <point x="182" y="696" type="line"/>
      <point x="78" y="696" type="line"/>
      <point x="78" y="-106" type="line"/>
      <point x="182" y="-106" type="line"/>
      <point x="182" y="-110" type="line"/>
    </contour>
  </outline>
</glyph>
<glyph name="backslash" format="1">
  <advance width="252"/>
  <unicode hex="005C"/>
  <outline>
    <contour>
      <point x="230" y="-90" type="line"/>
      <point x="18" y="790" type="line"/>
      <point x="22" y="790" type="line"/>
      <point x="234" y="-90" type="line"/>
    </contour>
  </outline>
</glyph>
<glyph name="bracketright" format="1">
  <advance width="218"/>
  <unicode hex="005D"/>
  <outline>
    <contour>
      <point x="36" y="-110" type="line"/>
      <point x="36" y="-106" type="line"/>
      <point x="140" y="-106" type="line"/>
      <point x="140" y="696" type="line"/>
      <point x="36" y="696" type="line"/>
      <point x="36" y="700" type="line"/>
      <point x="144" y="700" type="line"/>
      <point x="144" y="-110" type="line"/>
    </contour>
  </outline>
</glyph>
<glyph name="asciicircum" format="1">
  <advance width="362"/>
  <unicode hex="005E"/>
  <outline>
    <contour>
      <point x="45" y="382" type="line"/>
      <point x="179" y="700" type="line"/>
      <point x="183" y="700" type="line"/>
      <point x="317" y="382" type="line"/>
      <point x="313" y="382" type="line"/>
      <point x="181" y="695" type="line"/>
      <point x="49" y="382" type="line"/>
    </contour>
  </outline>
</glyph>
<glyph name="underscore" format="1">
  <advance width="334"/>
  <unicode hex="005F"/>
  <outline>
    <contour>
      <point x="-7" y="-107" type="line"/>
      <point x="-7" y="-103" type="line"/>
      <point x="341" y="-103" type="line"/>
      <point x="341" y="-107" type="line"/>
    </contour>
  </outline>
</glyph>
<glyph name="grave" format="1">
  <advance width="383"/>
  <unicode hex="0060"/>
  <outline>
    <contour>
      <point x="208" y="599" type="line"/>
      <point x="119" y="748" type="line"/>
      <point x="123" y="748" type="line"/>
      <point x="212" y="599" type="line"/>
    </contour>
  </outline>
</glyph>
<glyph name="a" format="1">
  <advance width="365"/>
  <unicode hex="0061"/>
  <outline>
    <contour>
      <point x="167" y="-8" type="curve" smooth="yes"/>
      <point x="104" y="-8"/>
      <point x="39" y="32"/>
      <point x="39" y="153" type="curve" smooth="yes"/>
      <point x="39" y="272"/>
      <point x="97" y="320"/>
      <point x="172" y="320" type="curve" smooth="yes"/>
      <point x="223" y="320"/>
      <point x="266" y="303"/>
      <point x="301" y="278" type="curve"/>
      <point x="301" y="401" type="line" smooth="yes"/>
      <point x="301" y="492"/>
      <point x="277" y="530"/>
      <point x="194" y="530" type="curve" smooth="yes"/>
      <point x="148" y="530"/>
      <point x="100" y="510"/>
      <point x="71" y="485" type="curve"/>
      <point x="68" y="488" type="line"/>
      <point x="99" y="514"/>
      <point x="144" y="534"/>
      <point x="194" y="534" type="curve" smooth="yes"/>
      <point x="278" y="534"/>
      <point x="305" y="498"/>
      <point x="305" y="401" type="curve" smooth="yes"/>
      <point x="305" y="0" type="line"/>
      <point x="301" y="0" type="line"/>
      <point x="301" y="68" type="line"/>
      <point x="266" y="20"/>
      <point x="216" y="-8"/>
    </contour>
    <contour>
      <point x="167" y="-4" type="curve" smooth="yes"/>
      <point x="216" y="-4"/>
      <point x="267" y="26"/>
      <point x="301" y="75" type="curve"/>
      <point x="301" y="75"/>
      <point x="301" y="274"/>
      <point x="301" y="273" type="curve"/>
      <point x="265" y="299"/>
      <point x="223" y="316"/>
      <point x="172" y="316" type="curve" smooth="yes"/>
      <point x="99" y="316"/>
      <point x="43" y="268"/>
      <point x="43" y="153" type="curve" smooth="yes"/>
      <point x="43" y="36"/>
      <point x="106" y="-4"/>
    </contour>
  </outline>
</glyph>
<glyph name="c" format="1">
  <advance width="344"/>
  <unicode hex="0063"/>
  <outline>
    <contour>
      <point x="191" y="-9" type="curve" smooth="yes"/>
      <point x="104" y="-9"/>
      <point x="45" y="96"/>
      <point x="45" y="262" type="curve" smooth="yes"/>
      <point x="45" y="428"/>
      <point x="104" y="534"/>
      <point x="191" y="534" type="curve" smooth="yes"/>
      <point x="251" y="534"/>
      <point x="284" y="485"/>
      <point x="304" y="431" type="curve"/>
      <point x="300" y="430" type="line"/>
      <point x="280" y="483"/>
      <point x="249" y="530"/>
      <point x="191" y="530" type="curve" smooth="yes"/>
      <point x="107" y="530"/>
      <point x="49" y="426"/>
      <point x="49" y="262" type="curve" smooth="yes"/>
      <point x="49" y="98"/>
      <point x="107" y="-5"/>
      <point x="191" y="-5" type="curve" smooth="yes"/>
      <point x="249" y="-5"/>
      <point x="280" y="42"/>
      <point x="300" y="95" type="curve"/>
      <point x="304" y="94" type="line"/>
      <point x="284" y="40"/>
      <point x="251" y="-9"/>
    </contour>
  </outline>
</glyph>
<glyph name="e" format="1">
  <advance width="375"/>
  <unicode hex="0065"/>
  <outline>
    <contour>
      <point x="188" y="-9" type="curve" smooth="yes"/>
      <point x="98" y="-9"/>
      <point x="45" y="99"/>
      <point x="45" y="262" type="curve" smooth="yes"/>
      <point x="45" y="426"/>
      <point x="99" y="534"/>
      <point x="189" y="534" type="curve" smooth="yes"/>
      <point x="276" y="534"/>
      <point x="327" y="424"/>
      <point x="327" y="272" type="curve" smooth="yes"/>
      <point x="327" y="270"/>
      <point x="327" y="265"/>
      <point x="327" y="264" type="curve"/>
      <point x="49" y="264" type="line"/>
      <point x="49" y="264"/>
      <point x="49" y="263"/>
      <point x="49" y="262" type="curve" smooth="yes"/>
      <point x="49" y="100"/>
      <point x="101" y="-5"/>
      <point x="188" y="-5" type="curve" smooth="yes"/>
      <point x="246" y="-5"/>
      <point x="281" y="24"/>
      <point x="309" y="80" type="curve"/>
      <point x="312" y="78" type="line"/>
      <point x="284" y="19"/>
      <point x="246" y="-9"/>
    </contour>
    <contour>
      <point x="49" y="268" type="curve"/>
      <point x="323" y="268" type="line"/>
      <point x="323" y="270"/>
      <point x="323" y="273"/>
      <point x="323" y="274" type="curve" smooth="yes"/>
      <point x="322" y="423"/>
      <point x="273" y="530"/>
      <point x="189" y="530" type="curve" smooth="yes"/>
      <point x="103" y="530"/>
      <point x="50" y="426"/>
    </contour>
  </outline>
</glyph>
<glyph name="f" format="1">
  <advance width="211"/>
  <unicode hex="0066"/>
  <outline>
    <contour>
      <point x="88" y="0" type="line"/>
      <point x="88" y="521" type="line"/>
      <point x="25" y="521" type="line"/>
      <point x="25" y="525" type="line"/>
      <point x="88" y="525" type="line"/>
      <point x="88" y="632" type="line" smooth="yes"/>
      <point x="88" y="700"/>
      <point x="121" y="725"/>
      <point x="162" y="725" type="curve" smooth="yes"/>
      <point x="183" y="725"/>
      <point x="195" y="722"/>
      <point x="207" y="718" type="curve"/>
      <point x="207" y="713" type="line"/>
      <point x="194" y="719"/>
      <point x="182" y="721"/>
      <point x="162" y="721" type="curve" smooth="yes"/>
      <point x="123" y="721"/>
      <point x="92" y="697"/>
      <point x="92" y="632" type="curve" smooth="yes"/>
      <point x="92" y="525" type="line"/>
      <point x="193" y="525" type="line"/>
      <point x="193" y="521" type="line"/>
      <point x="92" y="521" type="line"/>
      <point x="92" y="0" type="line"/>
    </contour>
  </outline>
</glyph>
<glyph name="g" format="1">
  <advance width="382"/>
  <unicode hex="0067"/>
  <outline>
    <contour>
      <point x="146" y="-190" type="curve"/>
      <point x="145" y="-186" type="line"/>
      <point x="272" y="-164"/>
      <point x="314" y="-119"/>
      <point x="314" y="22" type="curve" smooth="yes"/>
      <point x="314" y="73" type="line"/>
      <point x="281" y="23"/>
      <point x="237" y="-9"/>
      <point x="184" y="-9" type="curve" smooth="yes"/>
      <point x="102" y="-9"/>
      <point x="45" y="59"/>
      <point x="45" y="262" type="curve" smooth="yes"/>
      <point x="45" y="466"/>
      <point x="102" y="534"/>
      <point x="184" y="534" type="curve" smooth="yes"/>
      <point x="237" y="534"/>
      <point x="280" y="502"/>
      <point x="314" y="452" type="curve"/>
      <point x="314" y="525" type="line"/>
      <point x="318" y="525" type="line"/>
      <point x="318" y="22" type="line" smooth="yes"/>
      <point x="318" y="-121"/>
      <point x="276" y="-167"/>
    </contour>
    <contour>
      <point x="184" y="-5" type="curve" smooth="yes"/>
      <point x="236" y="-5"/>
      <point x="281" y="28"/>
      <point x="314" y="80" type="curve"/>
      <point x="314" y="445" type="line"/>
      <point x="281" y="496"/>
      <point x="236" y="530"/>
      <point x="184" y="530" type="curve" smooth="yes"/>
      <point x="105" y="530"/>
      <point x="49" y="462"/>
      <point x="49" y="262" type="curve" smooth="yes"/>
      <point x="49" y="63"/>
      <point x="105" y="-5"/>
    </contour>
  </outline>
</glyph>
<glyph name="i" format="1">
  <advance width="143"/>
  <unicode hex="0069"/>
  <outline>
    <contour>
      <point x="70" y="640" type="line"/>
      <point x="70" y="700" type="line"/>
      <point x="74" y="700" type="line"/>
      <point x="74" y="640" type="line"/>
    </contour>
    <contour>
      <point x="70" y="0" type="line"/>
      <point x="70" y="525" type="line"/>
      <point x="74" y="525" type="line"/>
      <point x="74" y="0" type="line"/>
    </contour>
  </outline>
</glyph>
<glyph name="j" format="1">
  <advance width="143"/>
  <unicode hex="006A"/>
  <outline>
    <contour>
      <point x="70" y="640" type="line"/>
      <point x="70" y="700" type="line"/>
      <point x="74" y="700" type="line"/>
      <point x="74" y="640" type="line"/>
    </contour>
    <contour>
      <point x="3" y="-189" type="curve"/>
      <point x="0" y="-186" type="line"/>
      <point x="50" y="-162"/>
      <point x="70" y="-128"/>
      <point x="70" y="-29" type="curve" smooth="yes"/>
      <point x="70" y="525" type="line"/>
      <point x="74" y="525" type="line"/>
      <point x="74" y="-29" type="line" smooth="yes"/>
      <point x="74" y="-130"/>
      <point x="53" y="-164"/>
    </contour>
  </outline>
</glyph>
<glyph name="k" format="1">
  <advance width="336"/>
  <unicode hex="006B"/>
  <outline>
    <contour>
      <point x="64" y="0" type="line"/>
      <point x="64" y="727" type="line"/>
      <point x="68" y="729" type="line"/>
      <point x="68" y="185" type="line"/>
      <point x="283" y="526" type="line"/>
      <point x="287" y="525" type="line"/>
      <point x="154" y="314" type="line"/>
      <point x="312" y="1" type="line"/>
      <point x="308" y="0" type="line"/>
      <point x="308" y="0"/>
      <point x="152" y="310"/>
      <point x="151" y="310" type="curve"/>
      <point x="68" y="178" type="line"/>
      <point x="68" y="0" type="line"/>
    </contour>
  </outline>
</glyph>
<glyph name="m" format="1">
  <advance width="635"/>
  <unicode hex="006D"/>
  <outline>
    <contour>
      <point x="320" y="438" type="curve"/>
      <point x="323" y="423"/>
      <point x="324" y="405"/>
      <point x="324" y="385" type="curve" smooth="yes"/>
      <point x="324" y="0" type="line"/>
      <point x="320" y="0" type="line"/>
      <point x="320" y="385" type="line" smooth="yes"/>
      <point x="320" y="470"/>
      <point x="298" y="530"/>
      <point x="205" y="530" type="curve" smooth="yes"/>
      <point x="135" y="530"/>
      <point x="86" y="471"/>
      <point x="68" y="436" type="curve"/>
      <point x="68" y="0" type="line"/>
      <point x="64" y="0" type="line"/>
      <point x="64" y="525" type="line"/>
      <point x="68" y="525" type="line"/>
      <point x="68" y="444" type="line"/>
      <point x="88" y="479"/>
      <point x="137" y="534"/>
      <point x="205" y="534" type="curve" smooth="yes"/>
      <point x="277" y="534"/>
      <point x="308" y="499"/>
      <point x="319" y="444" type="curve"/>
      <point x="339" y="479"/>
      <point x="388" y="534"/>
      <point x="456" y="534" type="curve" smooth="yes"/>
      <point x="551" y="534"/>
      <point x="575" y="473"/>
      <point x="575" y="385" type="curve" smooth="yes"/>
      <point x="575" y="0" type="line"/>
      <point x="571" y="0" type="line"/>
      <point x="571" y="385" type="line" smooth="yes"/>
      <point x="571" y="470"/>
      <point x="549" y="530"/>
      <point x="456" y="530" type="curve" smooth="yes"/>
      <point x="387" y="530"/>
      <point x="339" y="473"/>
    </contour>
  </outline>
</glyph>
<glyph name="n" format="1">
  <advance width="392"/>
  <unicode hex="006E"/>
  <outline>
    <contour>
      <point x="64" y="525" type="line"/>
      <point x="68" y="525" type="line"/>
      <point x="68" y="444" type="line"/>
      <point x="88" y="479"/>
      <point x="141" y="534"/>
      <point x="209" y="534" type="curve" smooth="yes"/>
      <point x="304" y="534"/>
      <point x="332" y="473"/>
      <point x="332" y="385" type="curve" smooth="yes"/>
      <point x="332" y="0" type="line"/>
      <point x="328" y="0" type="line"/>
      <point x="328" y="385" type="line" smooth="yes"/>
      <point x="328" y="470"/>
      <point x="302" y="530"/>
      <point x="209" y="530" type="curve" smooth="yes"/>
      <point x="139" y="530"/>
      <point x="86" y="471"/>
      <point x="68" y="436" type="curve"/>
      <point x="68" y="0" type="line"/>
      <point x="64" y="0" type="line"/>
    </contour>
  </outline>
</glyph>
<glyph name="o" format="1">
  <advance width="396"/>
  <unicode hex="006F"/>
  <outline>
    <contour>
      <point x="198" y="-9" type="curve" smooth="yes"/>
      <point x="101" y="-9"/>
      <point x="45" y="98"/>
      <point x="45" y="262" type="curve" smooth="yes"/>
      <point x="45" y="426"/>
      <point x="101" y="534"/>
      <point x="198" y="534" type="curve" smooth="yes"/>
      <point x="295" y="534"/>
      <point x="351" y="426"/>
      <point x="351" y="262" type="curve" smooth="yes"/>
      <point x="351" y="98"/>
      <point x="295" y="-9"/>
    </contour>
    <contour>
      <point x="198" y="-5" type="curve" smooth="yes"/>
      <point x="292" y="-5"/>
      <point x="347" y="100"/>
      <point x="347" y="262" type="curve" smooth="yes"/>
      <point x="347" y="424"/>
      <point x="292" y="530"/>
      <point x="198" y="530" type="curve" smooth="yes"/>
      <point x="104" y="530"/>
      <point x="49" y="424"/>
      <point x="49" y="262" type="curve" smooth="yes"/>
      <point x="49" y="100"/>
      <point x="104" y="-5"/>
    </contour>
  </outline>
</glyph>
<glyph name="q" format="1">
  <advance width="382"/>
  <unicode hex="0071"/>
  <outline>
    <contour>
      <point x="314" y="-185" type="line"/>
      <point x="314" y="73" type="line"/>
      <point x="281" y="23"/>
      <point x="237" y="-9"/>
      <point x="184" y="-9" type="curve" smooth="yes"/>
      <point x="102" y="-9"/>
      <point x="45" y="59"/>
      <point x="45" y="262" type="curve" smooth="yes"/>
      <point x="45" y="466"/>
      <point x="102" y="534"/>
      <point x="184" y="534" type="curve" smooth="yes"/>
      <point x="237" y="534"/>
      <point x="280" y="502"/>
      <point x="314" y="452" type="curve"/>
      <point x="314" y="525" type="line"/>
      <point x="318" y="525" type="line"/>
      <point x="318" y="-183" type="line"/>
    </contour>
    <contour>
      <point x="184" y="-5" type="curve" smooth="yes"/>
      <point x="236" y="-5"/>
      <point x="281" y="28"/>
      <point x="314" y="80" type="curve"/>
      <point x="314" y="445" type="line"/>
      <point x="281" y="496"/>
      <point x="236" y="530"/>
      <point x="184" y="530" type="curve" smooth="yes"/>
      <point x="105" y="530"/>
      <point x="49" y="462"/>
      <point x="49" y="262" type="curve" smooth="yes"/>
      <point x="49" y="63"/>
      <point x="105" y="-5"/>
    </contour>
  </outline>
</glyph>
<glyph name="r" format="1">
  <advance width="259"/>
  <unicode hex="0072"/>
  <outline>
    <contour>
      <point x="64" y="0" type="line"/>
      <point x="64" y="525" type="line"/>
      <point x="68" y="525" type="line"/>
      <point x="68" y="438" type="line"/>
      <point x="80" y="494"/>
      <point x="127" y="532"/>
      <point x="182" y="532" type="curve" smooth="yes"/>
      <point x="209" y="532"/>
      <point x="227" y="528"/>
      <point x="243" y="522" type="curve"/>
      <point x="241" y="518" type="line"/>
      <point x="227" y="524"/>
      <point x="209" y="528"/>
      <point x="182" y="528" type="curve" smooth="yes"/>
      <point x="141" y="528"/>
      <point x="83" y="504"/>
      <point x="68" y="423" type="curve"/>
      <point x="68" y="0" type="line"/>
    </contour>
  </outline>
</glyph>
<glyph name="s" format="1">
  <advance width="316"/>
  <unicode hex="0073"/>
  <outline>
    <contour>
      <point x="40" y="74" type="line"/>
      <point x="57" y="42"/>
      <point x="93" y="-5"/>
      <point x="158" y="-5" type="curve" smooth="yes"/>
      <point x="226" y="-5"/>
      <point x="269" y="41"/>
      <point x="269" y="108" type="curve" smooth="yes"/>
      <point x="269" y="180"/>
      <point x="241" y="216"/>
      <point x="158" y="272" type="curve" smooth="yes"/>
      <point x="77" y="327"/>
      <point x="47" y="361"/>
      <point x="47" y="427" type="curve" smooth="yes"/>
      <point x="47" y="489"/>
      <point x="88" y="534"/>
      <point x="152" y="534" type="curve" smooth="yes"/>
      <point x="213" y="534"/>
      <point x="251" y="490"/>
      <point x="269" y="460" type="curve"/>
      <point x="265" y="459" type="line"/>
      <point x="248" y="488"/>
      <point x="211" y="530"/>
      <point x="152" y="530" type="curve" smooth="yes"/>
      <point x="90" y="530"/>
      <point x="51" y="486"/>
      <point x="51" y="427" type="curve" smooth="yes"/>
      <point x="51" y="363"/>
      <point x="81" y="329"/>
      <point x="159" y="276" type="curve" smooth="yes"/>
      <point x="245" y="217"/>
      <point x="273" y="182"/>
      <point x="273" y="108" type="curve" smooth="yes"/>
      <point x="273" y="39"/>
      <point x="229" y="-9"/>
      <point x="158" y="-9" type="curve" smooth="yes"/>
      <point x="91" y="-9"/>
      <point x="53" y="41"/>
      <point x="36" y="73" type="curve"/>
    </contour>
  </outline>
</glyph>
<glyph name="t" format="1">
  <advance width="216"/>
  <unicode hex="0074"/>
  <outline>
    <contour>
      <point x="138" y="-5" type="curve" smooth="yes"/>
      <point x="100" y="-5"/>
      <point x="76" y="19"/>
      <point x="76" y="70" type="curve" smooth="yes"/>
      <point x="76" y="521" type="line"/>
      <point x="19" y="521" type="line"/>
      <point x="19" y="525" type="line"/>
      <point x="76" y="525" type="line"/>
      <point x="76" y="710" type="line"/>
      <point x="80" y="711" type="line"/>
      <point x="80" y="525" type="line"/>
      <point x="184" y="525" type="line"/>
      <point x="184" y="521" type="line"/>
      <point x="80" y="521" type="line"/>
      <point x="80" y="71" type="line" smooth="yes"/>
      <point x="80" y="23"/>
      <point x="102" y="-1"/>
      <point x="138" y="-1" type="curve" smooth="yes"/>
      <point x="159" y="-1"/>
      <point x="175" y="3"/>
      <point x="190" y="10" type="curve"/>
      <point x="191" y="6" type="line"/>
      <point x="176" y="-1"/>
      <point x="160" y="-5"/>
    </contour>
  </outline>
</glyph>
<glyph name="u" format="1">
  <advance width="392"/>
  <unicode hex="0075"/>
  <outline>
    <contour>
      <point x="328" y="0" type="line"/>
      <point x="324" y="0" type="line"/>
      <point x="324" y="81" type="line"/>
      <point x="304" y="46"/>
      <point x="251" y="-9"/>
      <point x="183" y="-9" type="curve" smooth="yes"/>
      <point x="88" y="-9"/>
      <point x="60" y="52"/>
      <point x="60" y="140" type="curve" smooth="yes"/>
      <point x="60" y="525" type="line"/>
      <point x="64" y="525" type="line"/>
      <point x="64" y="140" type="line" smooth="yes"/>
      <point x="64" y="55"/>
      <point x="90" y="-5"/>
      <point x="183" y="-5" type="curve" smooth="yes"/>
      <point x="253" y="-5"/>
      <point x="306" y="54"/>
      <point x="324" y="89" type="curve"/>
      <point x="324" y="525" type="line"/>
      <point x="328" y="525" type="line"/>
    </contour>
  </outline>
</glyph>
<glyph name="v" format="1">
  <advance width="348"/>
  <unicode hex="0076"/>
  <outline>
    <contour>
      <point x="172" y="-6" type="line"/>
      <point x="34" y="525" type="line"/>
      <point x="38" y="526" type="line"/>
      <point x="174" y="3" type="line"/>
      <point x="310" y="525" type="line"/>
      <point x="314" y="525" type="line"/>
      <point x="176" y="-6" type="line"/>
    </contour>
  </outline>
</glyph>
<glyph name="w" format="1">
  <advance width="511"/>
  <unicode hex="0077"/>
  <outline>
    <contour>
      <point x="137" y="-6" type="line"/>
      <point x="39" y="525" type="line"/>
      <point x="43" y="525" type="line"/>
      <point x="139" y="5" type="line"/>
      <point x="253" y="528" type="line"/>
      <point x="257" y="528" type="line"/>
      <point x="372" y="5" type="line"/>
      <point x="468" y="525" type="line"/>
      <point x="472" y="525" type="line"/>
      <point x="374" y="-6" type="line"/>
      <point x="370" y="-5" type="line"/>
      <point x="255" y="518" type="line"/>
      <point x="141" y="-5" type="line"/>
    </contour>
  </outline>
</glyph>
<glyph name="x" format="1">
  <advance width="331"/>
  <unicode hex="0078"/>
  <outline>
    <contour>
      <point x="38" y="1" type="line"/>
      <point x="163" y="278" type="line"/>
      <point x="52" y="525" type="line"/>
      <point x="56" y="526" type="line"/>
      <point x="165" y="283" type="line"/>
      <point x="274" y="525" type="line"/>
      <point x="278" y="524" type="line"/>
      <point x="167" y="279" type="line"/>
      <point x="293" y="0" type="line"/>
      <point x="289" y="-1" type="line"/>
      <point x="165" y="273" type="line"/>
      <point x="42" y="0" type="line"/>
    </contour>
  </outline>
</glyph>
<glyph name="y" format="1">
  <advance width="348"/>
  <unicode hex="0079"/>
  <outline>
    <contour>
      <point x="125" y="-185" type="line"/>
      <point x="172" y="-5" type="line"/>
      <point x="34" y="525" type="line"/>
      <point x="38" y="526" type="line"/>
      <point x="174" y="2" type="line"/>
      <point x="310" y="525" type="line"/>
      <point x="314" y="525" type="line"/>
      <point x="129" y="-185" type="line"/>
    </contour>
  </outline>
</glyph>
<glyph name="z" format="1">
  <advance width="326"/>
  <unicode hex="007A"/>
  <outline>
    <contour>
      <point x="36" y="0" type="line"/>
      <point x="36" y="4" type="line"/>
      <point x="280" y="521" type="line"/>
      <point x="59" y="521" type="line"/>
      <point x="59" y="525" type="line"/>
      <point x="285" y="525" type="line"/>
      <point x="285" y="521" type="line"/>
      <point x="41" y="4" type="line"/>
      <point x="284" y="4" type="line"/>
      <point x="284" y="0" type="line"/>
    </contour>
  </outline>
</glyph>
<glyph name="braceleft" format="1">
  <advance width="264"/>
  <unicode hex="007B"/>
  <outline>
    <contour>
      <point x="238" y="-108" type="line"/>
      <point x="159" y="-100"/>
      <point x="114" y="-60"/>
      <point x="114" y="52" type="curve" smooth="yes"/>
      <point x="114" y="222" type="line" smooth="yes"/>
      <point x="114" y="258"/>
      <point x="94" y="294"/>
      <point x="49" y="294" type="curve" smooth="yes"/>
      <point x="24" y="294" type="line"/>
      <point x="24" y="298" type="line"/>
      <point x="49" y="298" type="line" smooth="yes"/>
      <point x="94" y="298"/>
      <point x="114" y="334"/>
      <point x="114" y="370" type="curve" smooth="yes"/>
      <point x="114" y="540" type="line" smooth="yes"/>
      <point x="114" y="652"/>
      <point x="159" y="692"/>
      <point x="238" y="700" type="curve"/>
      <point x="238" y="696" type="line"/>
      <point x="161" y="688"/>
      <point x="118" y="649"/>
      <point x="118" y="540" type="curve" smooth="yes"/>
      <point x="118" y="370" type="line" smooth="yes"/>
      <point x="118" y="333"/>
      <point x="100" y="303"/>
      <point x="64" y="296" type="curve"/>
      <point x="100" y="289"/>
      <point x="118" y="259"/>
      <point x="118" y="222" type="curve" smooth="yes"/>
      <point x="118" y="52" type="line" smooth="yes"/>
      <point x="118" y="-57"/>
      <point x="161" y="-96"/>
      <point x="238" y="-104" type="curve"/>
    </contour>
  </outline>
</glyph>
<glyph name="bar" format="1">
  <advance width="186"/>
  <unicode hex="007C"/>
  <outline>
    <contour>
      <point x="91" y="-185" type="line"/>
      <point x="91" y="800" type="line"/>
      <point x="95" y="800" type="line"/>
      <point x="95" y="-185" type="line"/>
    </contour>
  </outline>
</glyph>
<glyph name="braceright" format="1">
  <advance width="264"/>
  <unicode hex="007D"/>
  <outline>
    <contour>
      <point x="26" y="-108" type="curve"/>
      <point x="26" y="-104" type="line"/>
      <point x="103" y="-96"/>
      <point x="146" y="-57"/>
      <point x="146" y="52" type="curve" smooth="yes"/>
      <point x="146" y="222" type="line" smooth="yes"/>
      <point x="146" y="259"/>
      <point x="164" y="289"/>
      <point x="200" y="296" type="curve"/>
      <point x="164" y="303"/>
      <point x="146" y="333"/>
      <point x="146" y="370" type="curve" smooth="yes"/>
      <point x="146" y="540" type="line" smooth="yes"/>
      <point x="146" y="649"/>
      <point x="103" y="688"/>
      <point x="26" y="696" type="curve"/>
      <point x="26" y="700" type="line"/>
      <point x="105" y="692"/>
      <point x="150" y="652"/>
      <point x="150" y="540" type="curve" smooth="yes"/>
      <point x="150" y="370" type="line" smooth="yes"/>
      <point x="150" y="334"/>
      <point x="170" y="298"/>
      <point x="215" y="298" type="curve" smooth="yes"/>
      <point x="240" y="298" type="line"/>
      <point x="240" y="294" type="line"/>
      <point x="215" y="294" type="line" smooth="yes"/>
      <point x="170" y="294"/>
      <point x="150" y="258"/>
      <point x="150" y="222" type="curve" smooth="yes"/>
      <point x="150" y="52" type="line" smooth="yes"/>
      <point x="150" y="-60"/>
      <point x="105" y="-100"/>
    </contour>
  </outline>
</glyph>
<glyph name="asciitilde" format="1">
  <advance width="341"/>
  <unicode hex="007E"/>
  <outline>
    <contour>
      <point x="46" y="323" type="curve"/>
      <point x="42" y="324" type="line"/>
      <point x="55" y="379"/>
      <point x="79" y="427"/>
      <point x="109" y="427" type="curve" smooth="yes"/>
      <point x="134" y="427"/>
      <point x="151" y="404"/>
      <point x="171" y="374" type="curve" smooth="yes"/>
      <point x="191" y="345"/>
      <point x="207" y="317"/>
      <point x="232" y="317" type="curve" smooth="yes"/>
      <point x="260" y="317"/>
      <point x="283" y="365"/>
      <point x="295" y="418" type="curve"/>
      <point x="299" y="417" type="line"/>
      <point x="286" y="362"/>
      <point x="262" y="313"/>
      <point x="232" y="313" type="curve" smooth="yes"/>
      <point x="206" y="313"/>
      <point x="190" y="340"/>
      <point x="168" y="372" type="curve" smooth="yes"/>
      <point x="150" y="399"/>
      <point x="133" y="423"/>
      <point x="109" y="423" type="curve" smooth="yes"/>
      <point x="81" y="423"/>
      <point x="59" y="376"/>
    </contour>
  </outline>
</glyph>
<glyph name="exclamdown" format="1">
  <advance width="161"/>
  <unicode hex="00A1"/>
  <outline>
    <contour>
      <point x="78" y="640" type="line"/>
      <point x="78" y="700" type="line"/>
      <point x="82" y="700" type="line"/>
      <point x="82" y="640" type="line"/>
    </contour>
    <contour>
      <point x="78" y="0" type="line"/>
      <point x="78" y="329" type="line"/>
      <point x="78" y="570" type="line"/>
      <point x="82" y="570" type="line"/>
      <point x="82" y="329" type="line"/>
      <point x="82" y="0" type="line"/>
    </contour>
  </outline>
</glyph>
<glyph name="cent" format="1">
  <advance width="344"/>
  <unicode hex="00A2"/>
  <outline>
    <contour>
      <point x="188" y="-15" type="line"/>
      <point x="188" y="83" type="line"/>
      <point x="103" y="85"/>
      <point x="45" y="190"/>
      <point x="45" y="354" type="curve" smooth="yes"/>
      <point x="45" y="518"/>
      <point x="103" y="624"/>
      <point x="188" y="626" type="curve"/>
      <point x="188" y="721" type="line"/>
      <point x="192" y="721" type="line"/>
      <point x="192" y="626" type="line"/>
      <point x="251" y="626"/>
      <point x="284" y="577"/>
      <point x="304" y="523" type="curve"/>
      <point x="300" y="522" type="line"/>
      <point x="280" y="575"/>
      <point x="249" y="622"/>
      <point x="191" y="622" type="curve" smooth="yes"/>
      <point x="107" y="622"/>
      <point x="49" y="518"/>
      <point x="49" y="354" type="curve" smooth="yes"/>
      <point x="49" y="190"/>
      <point x="107" y="87"/>
      <point x="191" y="87" type="curve" smooth="yes"/>
      <point x="249" y="87"/>
      <point x="280" y="134"/>
      <point x="300" y="187" type="curve"/>
      <point x="304" y="186" type="line"/>
      <point x="284" y="132"/>
      <point x="251" y="83"/>
      <point x="192" y="83" type="curve"/>
      <point x="192" y="-15" type="line"/>
    </contour>
  </outline>
</glyph>
<glyph name="sterling" format="1">
  <advance width="370"/>
  <unicode hex="00A3"/>
  <outline>
    <contour>
      <point x="50" y="0" type="line"/>
      <point x="50" y="5" type="line"/>
      <point x="97" y="77"/>
      <point x="127" y="162"/>
      <point x="127" y="252" type="curve" smooth="yes"/>
      <point x="127" y="278"/>
      <point x="125" y="301"/>
      <point x="121" y="324" type="curve"/>
      <point x="50" y="324" type="line"/>
      <point x="50" y="328" type="line"/>
      <point x="120" y="328" type="line"/>
      <point x="114" y="359"/>
      <point x="106" y="388"/>
      <point x="98" y="416" type="curve" smooth="yes"/>
      <point x="83" y="466"/>
      <point x="68" y="512"/>
      <point x="68" y="562" type="curve" smooth="yes"/>
      <point x="68" y="655"/>
      <point x="123" y="709"/>
      <point x="196" y="709" type="curve" smooth="yes"/>
      <point x="257" y="709"/>
      <point x="311" y="665"/>
      <point x="330" y="588" type="curve"/>
      <point x="326" y="588" type="line"/>
      <point x="306" y="663"/>
      <point x="255" y="705"/>
      <point x="196" y="705" type="curve" smooth="yes"/>
      <point x="126" y="705"/>
      <point x="72" y="653"/>
      <point x="72" y="562" type="curve" smooth="yes"/>
      <point x="72" y="514"/>
      <point x="88" y="465"/>
      <point x="102" y="417" type="curve" smooth="yes"/>
      <point x="111" y="388"/>
      <point x="118" y="360"/>
      <point x="124" y="328" type="curve"/>
      <point x="251" y="328" type="line"/>
      <point x="251" y="324" type="line"/>
      <point x="125" y="324" type="line"/>
      <point x="128" y="301"/>
      <point x="131" y="277"/>
      <point x="131" y="252" type="curve" smooth="yes"/>
      <point x="131" y="162"/>
      <point x="101" y="76"/>
      <point x="54" y="4" type="curve"/>
      <point x="339" y="4" type="line"/>
      <point x="339" y="0" type="line"/>
    </contour>
  </outline>
</glyph>
<glyph name="yen" format="1">
  <advance width="406"/>
  <unicode hex="00A5"/>
  <outline>
    <contour>
      <point x="201" y="0" type="line"/>
      <point x="201" y="169" type="line"/>
      <point x="99" y="169" type="line"/>
      <point x="99" y="173" type="line"/>
      <point x="201" y="173" type="line"/>
      <point x="201" y="301" type="line"/>
      <point x="40" y="700" type="line"/>
      <point x="44" y="700" type="line"/>
      <point x="203" y="307" type="line"/>
      <point x="362" y="700" type="line"/>
      <point x="366" y="700" type="line"/>
      <point x="205" y="301" type="line"/>
      <point x="205" y="173" type="line"/>
      <point x="307" y="173" type="line"/>
      <point x="307" y="169" type="line"/>
      <point x="205" y="169" type="line"/>
      <point x="205" y="0" type="line"/>
    </contour>
  </outline>
</glyph>
<glyph name="section" format="1">
  <advance width="397"/>
  <unicode hex="00A7"/>
  <outline>
    <contour>
      <point x="200" y="-162" type="curve" smooth="yes"/>
      <point x="122" y="-162"/>
      <point x="89" y="-92"/>
      <point x="77" y="-49" type="curve"/>
      <point x="81" y="-48" type="line"/>
      <point x="93" y="-90"/>
      <point x="124" y="-158"/>
      <point x="200" y="-158" type="curve" smooth="yes"/>
      <point x="265" y="-158"/>
      <point x="304" y="-109"/>
      <point x="304" y="-44" type="curve" smooth="yes"/>
      <point x="304" y="16"/>
      <point x="281" y="50"/>
      <point x="181" y="108" type="curve" smooth="yes"/>
      <point x="80" y="167"/>
      <point x="44" y="211"/>
      <point x="44" y="292" type="curve" smooth="yes"/>
      <point x="44" y="377"/>
      <point x="101" y="433"/>
      <point x="169" y="463" type="curve"/>
      <point x="104" y="507"/>
      <point x="89" y="540"/>
      <point x="89" y="591" type="curve" smooth="yes"/>
      <point x="89" y="658"/>
      <point x="130" y="709"/>
      <point x="197" y="709" type="curve" smooth="yes"/>
      <point x="275" y="709"/>
      <point x="308" y="639"/>
      <point x="320" y="596" type="curve"/>
      <point x="316" y="595" type="line"/>
      <point x="304" y="637"/>
      <point x="273" y="705"/>
      <point x="197" y="705" type="curve" smooth="yes"/>
      <point x="132" y="705"/>
      <point x="93" y="656"/>
      <point x="93" y="591" type="curve" smooth="yes"/>
      <point x="93" y="531"/>
      <point x="115" y="497"/>
      <point x="216" y="439" type="curve" smooth="yes"/>
      <point x="317" y="380"/>
      <point x="353" y="336"/>
      <point x="353" y="255" type="curve" smooth="yes"/>
      <point x="353" y="172"/>
      <point x="298" y="114"/>
      <point x="227" y="84" type="curve"/>
      <point x="293" y="40"/>
      <point x="308" y="7"/>
      <point x="308" y="-44" type="curve" smooth="yes"/>
      <point x="308" y="-111"/>
      <point x="267" y="-162"/>
    </contour>
    <contour>
      <point x="224" y="86" type="curve"/>
      <point x="297" y="118"/>
      <point x="349" y="174"/>
      <point x="349" y="255" type="curve" smooth="yes"/>
      <point x="349" y="334"/>
      <point x="314" y="378"/>
      <point x="215" y="435" type="curve" smooth="yes"/>
      <point x="199" y="444"/>
      <point x="185" y="453"/>
      <point x="173" y="461" type="curve"/>
      <point x="100" y="429"/>
      <point x="48" y="373"/>
      <point x="48" y="292" type="curve" smooth="yes"/>
      <point x="48" y="213"/>
      <point x="83" y="169"/>
      <point x="182" y="112" type="curve" smooth="yes"/>
      <point x="198" y="103"/>
      <point x="212" y="94"/>
    </contour>
  </outline>
</glyph>
<glyph name="dieresis" format="1">
  <advance width="383"/>
  <unicode hex="00A8"/>
  <outline>
    <contour>
      <point x="263" y="611" type="line"/>
      <point x="263" y="681" type="line"/>
      <point x="267" y="681" type="line"/>
      <point x="267" y="611" type="line"/>
    </contour>
    <contour>
      <point x="117" y="611" type="line"/>
      <point x="117" y="681" type="line"/>
      <point x="121" y="681" type="line"/>
      <point x="121" y="611" type="line"/>
    </contour>
  </outline>
</glyph>
<glyph name="copyright" format="1">
  <advance width="589"/>
  <unicode hex="00A9"/>
  <outline>
    <contour>
      <point x="294" y="-9" type="curve" smooth="yes"/>
      <point x="140" y="-9"/>
      <point x="45" y="148"/>
      <point x="45" y="351" type="curve" smooth="yes"/>
      <point x="45" y="554"/>
      <point x="140" y="712"/>
      <point x="294" y="712" type="curve" smooth="yes"/>
      <point x="448" y="712"/>
      <point x="544" y="554"/>
      <point x="544" y="351" type="curve" smooth="yes"/>
      <point x="544" y="148"/>
      <point x="448" y="-9"/>
    </contour>
    <contour>
      <point x="294" y="-5" type="curve" smooth="yes"/>
      <point x="446" y="-5"/>
      <point x="540" y="150"/>
      <point x="540" y="351" type="curve" smooth="yes"/>
      <point x="540" y="552"/>
      <point x="446" y="708"/>
      <point x="294" y="708" type="curve" smooth="yes"/>
      <point x="142" y="708"/>
      <point x="49" y="552"/>
      <point x="49" y="351" type="curve" smooth="yes"/>
      <point x="49" y="150"/>
      <point x="142" y="-5"/>
    </contour>
    <contour>
      <point x="293" y="144" type="curve" smooth="yes"/>
      <point x="234" y="144"/>
      <point x="190" y="203"/>
      <point x="190" y="351" type="curve" smooth="yes"/>
      <point x="190" y="499"/>
      <point x="234" y="558"/>
      <point x="293" y="558" type="curve" smooth="yes"/>
      <point x="327" y="558"/>
      <point x="351" y="537"/>
      <point x="366" y="484" type="curve"/>
      <point x="362" y="484" type="line"/>
      <point x="347" y="535"/>
      <point x="325" y="554"/>
      <point x="293" y="554" type="curve" smooth="yes"/>
      <point x="235" y="554"/>
      <point x="194" y="494"/>
      <point x="194" y="351" type="curve" smooth="yes"/>
      <point x="194" y="208"/>
      <point x="235" y="148"/>
      <point x="293" y="148" type="curve" smooth="yes"/>
      <point x="322" y="148"/>
      <point x="347" y="167"/>
      <point x="364" y="220" type="curve"/>
      <point x="368" y="220" type="line"/>
      <point x="352" y="168"/>
      <point x="325" y="144"/>
    </contour>
  </outline>
</glyph>
<glyph name="ordfeminine" format="1">
  <advance width="326"/>
  <unicode hex="00AA"/>
  <outline>
    <contour>
      <point x="155" y="273" type="curve" smooth="yes"/>
      <point x="99" y="273"/>
      <point x="52" y="305"/>
      <point x="52" y="402" type="curve" smooth="yes"/>
      <point x="52" y="499"/>
      <point x="99" y="537"/>
      <point x="159" y="537" type="curve" smooth="yes"/>
      <point x="200" y="537"/>
      <point x="235" y="522"/>
      <point x="261" y="503" type="curve"/>
      <point x="261" y="604" type="line" smooth="yes"/>
      <point x="261" y="677"/>
      <point x="237" y="707"/>
      <point x="175" y="707" type="curve" smooth="yes"/>
      <point x="138" y="707"/>
      <point x="108" y="694"/>
      <point x="79" y="673" type="curve"/>
      <point x="76" y="676" type="line"/>
      <point x="105" y="697"/>
      <point x="135" y="711"/>
      <point x="175" y="711" type="curve" smooth="yes"/>
      <point x="239" y="711"/>
      <point x="265" y="680"/>
      <point x="265" y="604" type="curve" smooth="yes"/>
      <point x="265" y="278" type="line"/>
      <point x="261" y="278" type="line"/>
      <point x="261" y="336" type="line"/>
      <point x="233" y="296"/>
      <point x="195" y="273"/>
    </contour>
    <contour>
      <point x="155" y="277" type="curve" smooth="yes"/>
      <point x="195" y="277"/>
      <point x="233" y="301"/>
      <point x="261" y="342" type="curve"/>
      <point x="261" y="498" type="line"/>
      <point x="232" y="519"/>
      <point x="199" y="533"/>
      <point x="159" y="533" type="curve" smooth="yes"/>
      <point x="101" y="533"/>
      <point x="56" y="496"/>
      <point x="56" y="402" type="curve" smooth="yes"/>
      <point x="56" y="309"/>
      <point x="101" y="277"/>
    </contour>
  </outline>
</glyph>
<glyph name="guillemotleft" format="1">
  <advance width="382"/>
  <unicode hex="00AB"/>
  <outline>
    <contour>
      <point x="334" y="0" type="line"/>
      <point x="181" y="261" type="line"/>
      <point x="181" y="263" type="line"/>
      <point x="334" y="525" type="line"/>
      <point x="339" y="525" type="line"/>
      <point x="185" y="262" type="line"/>
      <point x="339" y="0" type="line"/>
    </contour>
    <contour>
      <point x="183" y="0" type="line"/>
      <point x="30" y="261" type="line"/>
      <point x="30" y="263" type="line"/>
      <point x="183" y="525" type="line"/>
      <point x="188" y="525" type="line"/>
      <point x="34" y="262" type="line"/>
      <point x="188" y="0" type="line"/>
    </contour>
  </outline>
</glyph>
<glyph name="degree" format="1">
  <advance width="303"/>
  <unicode hex="00B0"/>
  <outline>
    <contour>
      <point x="152" y="484" type="curve" smooth="yes"/>
      <point x="89" y="484"/>
      <point x="44" y="533"/>
      <point x="44" y="596" type="curve" smooth="yes"/>
      <point x="44" y="658"/>
      <point x="89" y="707"/>
      <point x="152" y="707" type="curve" smooth="yes"/>
      <point x="214" y="707"/>
      <point x="259" y="658"/>
      <point x="259" y="596" type="curve" smooth="yes"/>
      <point x="259" y="533"/>
      <point x="214" y="484"/>
    </contour>
    <contour>
      <point x="152" y="488" type="curve" smooth="yes"/>
      <point x="212" y="488"/>
      <point x="255" y="535"/>
      <point x="255" y="596" type="curve" smooth="yes"/>
      <point x="255" y="656"/>
      <point x="212" y="703"/>
      <point x="152" y="703" type="curve" smooth="yes"/>
      <point x="91" y="703"/>
      <point x="48" y="656"/>
      <point x="48" y="596" type="curve" smooth="yes"/>
      <point x="48" y="535"/>
      <point x="91" y="488"/>
    </contour>
  </outline>
</glyph>
<glyph name="acute" format="1">
  <advance width="383"/>
  <unicode hex="00B4"/>
  <outline>
    <contour>
      <point x="171" y="599" type="line"/>
      <point x="260" y="748" type="line"/>
      <point x="264" y="748" type="line"/>
      <point x="175" y="599" type="line"/>
    </contour>
  </outline>
</glyph>
<glyph name="paragraph" format="1">
  <advance width="453"/>
  <unicode hex="00B6"/>
  <outline>
    <contour>
      <point x="263" y="-185" type="line"/>
      <point x="263" y="298" type="line"/>
      <point x="226" y="298" type="line" smooth="yes"/>
      <point x="96" y="298"/>
      <point x="31" y="381"/>
      <point x="31" y="503" type="curve" smooth="yes"/>
      <point x="31" y="632"/>
      <point x="109" y="700"/>
      <point x="227" y="700" type="curve" smooth="yes"/>
      <point x="379" y="700" type="line"/>
      <point x="379" y="-185" type="line"/>
      <point x="375" y="-185" type="line"/>
      <point x="375" y="696" type="line"/>
      <point x="267" y="696" type="line"/>
      <point x="267" y="-185" type="line"/>
    </contour>
    <contour>
      <point x="226" y="302" type="curve" smooth="yes"/>
      <point x="263" y="302" type="line"/>
      <point x="263" y="696" type="line"/>
      <point x="227" y="696" type="line" smooth="yes"/>
      <point x="112" y="696"/>
      <point x="36" y="630"/>
      <point x="36" y="503" type="curve" smooth="yes"/>
      <point x="36" y="383"/>
      <point x="98" y="302"/>
    </contour>
  </outline>
</glyph>
<glyph name="periodcentered" format="1">
  <advance width="105"/>
  <unicode hex="00B7"/>
  <outline>
    <contour>
      <point x="50" y="337" type="line"/>
      <point x="50" y="397" type="line"/>
      <point x="54" y="397" type="line"/>
      <point x="54" y="337" type="line"/>
    </contour>
  </outline>
</glyph>
<glyph name="cedilla" format="1">
  <advance width="383"/>
  <unicode hex="00B8"/>
  <outline>
    <contour>
      <point x="203" y="-179" type="curve" smooth="yes"/>
      <point x="178" y="-179"/>
      <point x="155" y="-170"/>
      <point x="135" y="-150" type="curve"/>
      <point x="138" y="-147" type="line"/>
      <point x="156" y="-166"/>
      <point x="179" y="-175"/>
      <point x="203" y="-175" type="curve" smooth="yes"/>
      <point x="241" y="-175"/>
      <point x="269" y="-151"/>
      <point x="269" y="-107" type="curve" smooth="yes"/>
      <point x="269" y="-74"/>
      <point x="245" y="-60"/>
      <point x="223" y="-60" type="curve" smooth="yes"/>
      <point x="205" y="-60"/>
      <point x="190" y="-66"/>
      <point x="176" y="-78" type="curve"/>
      <point x="173" y="-76" type="line"/>
      <point x="203" y="-2" type="line"/>
      <point x="207" y="-2" type="line"/>
      <point x="179" y="-71" type="line"/>
      <point x="191" y="-61"/>
      <point x="207" y="-56"/>
      <point x="223" y="-56" type="curve" smooth="yes"/>
      <point x="247" y="-56"/>
      <point x="273" y="-71"/>
      <point x="273" y="-107" type="curve" smooth="yes"/>
      <point x="273" y="-153"/>
      <point x="243" y="-179"/>
    </contour>
  </outline>
</glyph>
<glyph name="ordmasculine" format="1">
  <advance width="351"/>
  <unicode hex="00BA"/>
  <outline>
    <contour>
      <point x="176" y="271" type="curve" smooth="yes"/>
      <point x="97" y="271"/>
      <point x="52" y="358"/>
      <point x="52" y="491" type="curve" smooth="yes"/>
      <point x="52" y="624"/>
      <point x="97" y="711"/>
      <point x="176" y="711" type="curve" smooth="yes"/>
      <point x="254" y="711"/>
      <point x="299" y="625"/>
      <point x="299" y="491" type="curve" smooth="yes"/>
      <point x="299" y="358"/>
      <point x="254" y="271"/>
    </contour>
    <contour>
      <point x="176" y="275" type="curve" smooth="yes"/>
      <point x="252" y="275"/>
      <point x="295" y="361"/>
      <point x="295" y="491" type="curve" smooth="yes"/>
      <point x="295" y="622"/>
      <point x="252" y="707"/>
      <point x="176" y="707" type="curve" smooth="yes"/>
      <point x="100" y="707"/>
      <point x="56" y="621"/>
      <point x="56" y="491" type="curve" smooth="yes"/>
      <point x="56" y="360"/>
      <point x="100" y="275"/>
    </contour>
  </outline>
</glyph>
<glyph name="guillemotright" format="1">
  <advance width="382"/>
  <unicode hex="00BB"/>
  <outline>
    <contour>
      <point x="195" y="0" type="line"/>
      <point x="348" y="262" type="line"/>
      <point x="195" y="525" type="line"/>
      <point x="200" y="525" type="line"/>
      <point x="352" y="263" type="line"/>
      <point x="352" y="261" type="line"/>
      <point x="200" y="0" type="line"/>
    </contour>
    <contour>
      <point x="44" y="0" type="line"/>
      <point x="197" y="262" type="line"/>
      <point x="44" y="525" type="line"/>
      <point x="49" y="525" type="line"/>
      <point x="201" y="263" type="line"/>
      <point x="201" y="261" type="line"/>
      <point x="49" y="0" type="line"/>
    </contour>
  </outline>
</glyph>
<glyph name="questiondown" format="1">
  <advance width="359"/>
  <unicode hex="00BF"/>
  <outline>
    <contour>
      <point x="192" y="640" type="line"/>
      <point x="192" y="700" type="line"/>
      <point x="196" y="700" type="line"/>
      <point x="196" y="640" type="line"/>
    </contour>
    <contour>
      <point x="178" y="-9" type="curve" smooth="yes"/>
      <point x="105" y="-9"/>
      <point x="55" y="47"/>
      <point x="55" y="133" type="curve" smooth="yes"/>
      <point x="55" y="207"/>
      <point x="83" y="262"/>
      <point x="134" y="328" type="curve" smooth="yes"/>
      <point x="181" y="389"/>
      <point x="192" y="436"/>
      <point x="192" y="570" type="curve"/>
      <point x="196" y="570" type="line"/>
      <point x="196" y="434"/>
      <point x="184" y="387"/>
      <point x="137" y="326" type="curve" smooth="yes"/>
      <point x="85" y="259"/>
      <point x="59" y="205"/>
      <point x="59" y="133" type="curve" smooth="yes"/>
      <point x="59" y="49"/>
      <point x="108" y="-5"/>
      <point x="178" y="-5" type="curve" smooth="yes"/>
      <point x="242" y="-5"/>
      <point x="289" y="39"/>
      <point x="316" y="119" type="curve"/>
      <point x="320" y="119" type="line"/>
      <point x="293" y="36"/>
      <point x="243" y="-9"/>
    </contour>
  </outline>
</glyph>
<glyph name="Aring" format="1">
  <advance width="448"/>
  <unicode hex="00C5"/>
  <outline>
    <contour>
      <point x="52" y="0" type="line"/>
      <point x="220" y="697" type="line"/>
      <point x="182" y="699"/>
      <point x="152" y="730"/>
      <point x="152" y="769" type="curve" smooth="yes"/>
      <point x="152" y="809"/>
      <point x="184" y="841"/>
      <point x="224" y="841" type="curve" smooth="yes"/>
      <point x="264" y="841"/>
      <point x="296" y="809"/>
      <point x="296" y="769" type="curve" smooth="yes"/>
      <point x="296" y="730"/>
      <point x="266" y="699"/>
      <point x="228" y="697" type="curve"/>
      <point x="396" y="0" type="line"/>
      <point x="392" y="0" type="line"/>
      <point x="341" y="211" type="line"/>
      <point x="107" y="211" type="line"/>
      <point x="56" y="0" type="line"/>
    </contour>
    <contour>
      <point x="224" y="701" type="curve" smooth="yes"/>
      <point x="262" y="701"/>
      <point x="292" y="731"/>
      <point x="292" y="769" type="curve" smooth="yes"/>
      <point x="292" y="807"/>
      <point x="262" y="837"/>
      <point x="224" y="837" type="curve" smooth="yes"/>
      <point x="186" y="837"/>
      <point x="156" y="807"/>
      <point x="156" y="769" type="curve" smooth="yes"/>
      <point x="156" y="731"/>
      <point x="186" y="701"/>
    </contour>
    <contour>
      <point x="108" y="215" type="line"/>
      <point x="340" y="215" type="line"/>
      <point x="224" y="696" type="line"/>
    </contour>
  </outline>
</glyph>
<glyph name="AE" format="1">
  <advance width="619"/>
  <unicode hex="00C6"/>
  <outline>
    <contour>
      <point x="20" y="1" type="line"/>
      <point x="341" y="700" type="line"/>
      <point x="580" y="700" type="line"/>
      <point x="580" y="696" type="line"/>
      <point x="346" y="696" type="line"/>
      <point x="346" y="376" type="line"/>
      <point x="501" y="376" type="line"/>
      <point x="501" y="372" type="line"/>
      <point x="346" y="372" type="line"/>
      <point x="346" y="4" type="line"/>
      <point x="592" y="4" type="line"/>
      <point x="592" y="0" type="line"/>
      <point x="342" y="0" type="line"/>
      <point x="342" y="213" type="line"/>
      <point x="122" y="213" type="line"/>
      <point x="24" y="0" type="line"/>
    </contour>
    <contour>
      <point x="124" y="217" type="line"/>
      <point x="342" y="217" type="line"/>
      <point x="342" y="692" type="line"/>
    </contour>
  </outline>
</glyph>
<glyph name="Ccedilla" format="1">
  <advance width="409"/>
  <unicode hex="00C7"/>
  <outline>
    <contour>
      <point x="224" y="-9" type="line"/>
      <point x="128" y="-6"/>
      <point x="56" y="99"/>
      <point x="56" y="350" type="curve" smooth="yes"/>
      <point x="56" y="604"/>
      <point x="130" y="709"/>
      <point x="228" y="709" type="curve" smooth="yes"/>
      <point x="321" y="709"/>
      <point x="352" y="606"/>
      <point x="360" y="575" type="curve"/>
      <point x="356" y="574" type="line"/>
      <point x="348" y="603"/>
      <point x="319" y="705"/>
      <point x="228" y="705" type="curve" smooth="yes"/>
      <point x="132" y="705"/>
      <point x="60" y="600"/>
      <point x="60" y="350" type="curve" smooth="yes"/>
      <point x="60" y="100"/>
      <point x="132" y="-5"/>
      <point x="228" y="-5" type="curve" smooth="yes"/>
      <point x="319" y="-5"/>
      <point x="348" y="96"/>
      <point x="356" y="126" type="curve"/>
      <point x="360" y="126" type="line"/>
      <point x="352" y="94"/>
      <point x="321" y="-9"/>
      <point x="228" y="-9" type="curve"/>
      <point x="203" y="-71" type="line"/>
      <point x="215" y="-61"/>
      <point x="231" y="-56"/>
      <point x="247" y="-56" type="curve" smooth="yes"/>
      <point x="271" y="-56"/>
      <point x="297" y="-71"/>
      <point x="297" y="-107" type="curve" smooth="yes"/>
      <point x="297" y="-153"/>
      <point x="267" y="-179"/>
      <point x="227" y="-179" type="curve" smooth="yes"/>
      <point x="202" y="-179"/>
      <point x="179" y="-170"/>
      <point x="159" y="-150" type="curve"/>
      <point x="162" y="-147" type="line"/>
      <point x="180" y="-166"/>
      <point x="203" y="-175"/>
      <point x="227" y="-175" type="curve" smooth="yes"/>
      <point x="265" y="-175"/>
      <point x="293" y="-151"/>
      <point x="293" y="-107" type="curve" smooth="yes"/>
      <point x="293" y="-74"/>
      <point x="269" y="-60"/>
      <point x="247" y="-60" type="curve" smooth="yes"/>
      <point x="229" y="-60"/>
      <point x="214" y="-66"/>
      <point x="200" y="-78" type="curve"/>
      <point x="197" y="-76" type="line"/>
    </contour>
  </outline>
</glyph>
<glyph name="Eth" format="1">
  <advance width="453"/>
  <unicode hex="00D0"/>
  <outline>
    <contour>
      <point x="82" y="0" type="line"/>
      <point x="82" y="363" type="line"/>
      <point x="25" y="363" type="line"/>
      <point x="25" y="367" type="line"/>
      <point x="82" y="367" type="line"/>
      <point x="82" y="700" type="line"/>
      <point x="186" y="700" type="line" smooth="yes"/>
      <point x="329" y="700"/>
      <point x="399" y="606"/>
      <point x="399" y="350" type="curve" smooth="yes"/>
      <point x="399" y="93"/>
      <point x="329" y="0"/>
      <point x="186" y="0" type="curve" smooth="yes"/>
    </contour>
    <contour>
      <point x="86" y="4" type="line"/>
      <point x="186" y="4" type="line" smooth="yes"/>
      <point x="328" y="4"/>
      <point x="395" y="97"/>
      <point x="395" y="350" type="curve" smooth="yes"/>
      <point x="395" y="602"/>
      <point x="328" y="696"/>
      <point x="186" y="696" type="curve" smooth="yes"/>
      <point x="86" y="696" type="line"/>
      <point x="86" y="367" type="line"/>
      <point x="206" y="367" type="line"/>
      <point x="206" y="363" type="line"/>
      <point x="86" y="363" type="line"/>
    </contour>
  </outline>
</glyph>
<glyph name="Oslash" format="1">
  <advance width="471"/>
  <unicode hex="00D8"/>
  <outline>
    <contour>
      <point x="85" y="-50" type="line"/>
      <point x="122" y="50" type="line"/>
      <point x="81" y="106"/>
      <point x="56" y="203"/>
      <point x="56" y="350" type="curve" smooth="yes"/>
      <point x="56" y="607"/>
      <point x="132" y="709"/>
      <point x="236" y="709" type="curve" smooth="yes"/>
      <point x="279" y="709"/>
      <point x="317" y="692"/>
      <point x="347" y="653" type="curve"/>
      <point x="383" y="750" type="line"/>
      <point x="387" y="750" type="line"/>
      <point x="350" y="649" type="line"/>
      <point x="390" y="594"/>
      <point x="415" y="498"/>
      <point x="415" y="350" type="curve" smooth="yes"/>
      <point x="415" y="93"/>
      <point x="340" y="-9"/>
      <point x="236" y="-9" type="curve" smooth="yes"/>
      <point x="193" y="-9"/>
      <point x="155" y="8"/>
      <point x="125" y="46" type="curve"/>
      <point x="89" y="-50" type="line"/>
    </contour>
    <contour>
      <point x="124" y="55" type="curve"/>
      <point x="345" y="648" type="line"/>
      <point x="316" y="687"/>
      <point x="279" y="705"/>
      <point x="236" y="705" type="curve" smooth="yes"/>
      <point x="134" y="705"/>
      <point x="60" y="603"/>
      <point x="60" y="350" type="curve" smooth="yes"/>
      <point x="60" y="205"/>
      <point x="84" y="110"/>
    </contour>
    <contour>
      <point x="236" y="-5" type="curve" smooth="yes"/>
      <point x="338" y="-5"/>
      <point x="411" y="97"/>
      <point x="411" y="350" type="curve" smooth="yes"/>
      <point x="411" y="494"/>
      <point x="387" y="590"/>
      <point x="348" y="645" type="curve"/>
      <point x="127" y="51" type="line"/>
      <point x="156" y="13"/>
      <point x="193" y="-5"/>
    </contour>
  </outline>
</glyph>
<glyph name="Thorn" format="1">
  <advance width="385"/>
  <unicode hex="00DE"/>
  <outline>
    <contour>
      <point x="72" y="0" type="line"/>
      <point x="72" y="700" type="line"/>
      <point x="76" y="700" type="line"/>
      <point x="76" y="542" type="line"/>
      <point x="166" y="542" type="line" smooth="yes"/>
      <point x="279" y="542"/>
      <point x="349" y="500"/>
      <point x="349" y="361" type="curve" smooth="yes"/>
      <point x="349" y="225"/>
      <point x="280" y="177"/>
      <point x="161" y="177" type="curve" smooth="yes"/>
      <point x="76" y="177" type="line"/>
      <point x="76" y="0" type="line"/>
    </contour>
    <contour>
      <point x="76" y="181" type="line"/>
      <point x="161" y="181" type="line" smooth="yes"/>
      <point x="278" y="181"/>
      <point x="345" y="228"/>
      <point x="345" y="361" type="curve" smooth="yes"/>
      <point x="345" y="497"/>
      <point x="277" y="538"/>
      <point x="166" y="538" type="curve" smooth="yes"/>
      <point x="76" y="538" type="line"/>
    </contour>
  </outline>
</glyph>
<glyph name="germandbls" format="1">
  <advance width="402"/>
  <unicode hex="00DF"/>
  <outline>
    <contour>
      <point x="64" y="-185" type="line"/>
      <point x="64" y="545" type="line" smooth="yes"/>
      <point x="64" y="665"/>
      <point x="111" y="723"/>
      <point x="188" y="723" type="curve" smooth="yes"/>
      <point x="269" y="723"/>
      <point x="315" y="664"/>
      <point x="315" y="568" type="curve" smooth="yes"/>
      <point x="315" y="464"/>
      <point x="270" y="412"/>
      <point x="206" y="404" type="curve"/>
      <point x="293" y="395"/>
      <point x="355" y="335"/>
      <point x="355" y="212" type="curve" smooth="yes"/>
      <point x="355" y="63"/>
      <point x="293" y="0"/>
      <point x="182" y="0" type="curve" smooth="yes"/>
      <point x="173" y="0" type="line"/>
      <point x="173" y="4" type="line"/>
      <point x="182" y="4" type="line" smooth="yes"/>
      <point x="291" y="4"/>
      <point x="351" y="66"/>
      <point x="351" y="212" type="curve" smooth="yes"/>
      <point x="351" y="337"/>
      <point x="286" y="401"/>
      <point x="183" y="401" type="curve" smooth="yes"/>
      <point x="173" y="401" type="line"/>
      <point x="173" y="405" type="line"/>
      <point x="175" y="405"/>
      <point x="180" y="405"/>
      <point x="182" y="405" type="curve" smooth="yes"/>
      <point x="264" y="407"/>
      <point x="311" y="460"/>
      <point x="311" y="568" type="curve" smooth="yes"/>
      <point x="311" y="661"/>
      <point x="267" y="719"/>
      <point x="188" y="719" type="curve" smooth="yes"/>
      <point x="113" y="719"/>
      <point x="68" y="661"/>
      <point x="68" y="545" type="curve" smooth="yes"/>
      <point x="68" y="-183" type="line"/>
    </contour>
  </outline>
</glyph>
<glyph name="ae" format="1">
  <advance width="630"/>
  <unicode hex="00E6"/>
  <outline>
    <contour>
      <point x="167" y="-8" type="curve" smooth="yes"/>
      <point x="104" y="-8"/>
      <point x="39" y="32"/>
      <point x="39" y="153" type="curve" smooth="yes"/>
      <point x="39" y="272"/>
      <point x="97" y="320"/>
      <point x="172" y="320" type="curve" smooth="yes"/>
      <point x="224" y="320"/>
      <point x="266" y="303"/>
      <point x="301" y="278" type="curve"/>
      <point x="301" y="401" type="line" smooth="yes"/>
      <point x="301" y="492"/>
      <point x="277" y="530"/>
      <point x="194" y="530" type="curve" smooth="yes"/>
      <point x="148" y="530"/>
      <point x="100" y="510"/>
      <point x="71" y="485" type="curve"/>
      <point x="68" y="488" type="line"/>
      <point x="99" y="514"/>
      <point x="144" y="534"/>
      <point x="194" y="534" type="curve" smooth="yes"/>
      <point x="278" y="534"/>
      <point x="305" y="498"/>
      <point x="305" y="401" type="curve" smooth="yes"/>
      <point x="305" y="337" type="line"/>
      <point x="317" y="438"/>
      <point x="359" y="534"/>
      <point x="445" y="534" type="curve" smooth="yes"/>
      <point x="532" y="534"/>
      <point x="583" y="424"/>
      <point x="583" y="272" type="curve" smooth="yes"/>
      <point x="583" y="270"/>
      <point x="583" y="265"/>
      <point x="583" y="264" type="curve"/>
      <point x="305" y="264" type="line"/>
      <point x="305" y="262" type="line" smooth="yes"/>
      <point x="305" y="100"/>
      <point x="357" y="-5"/>
      <point x="444" y="-5" type="curve" smooth="yes"/>
      <point x="502" y="-5"/>
      <point x="537" y="24"/>
      <point x="565" y="80" type="curve"/>
      <point x="568" y="78" type="line"/>
      <point x="540" y="19"/>
      <point x="502" y="-9"/>
      <point x="444" y="-9" type="curve" smooth="yes"/>
      <point x="390" y="-9"/>
      <point x="349" y="30"/>
      <point x="325" y="97" type="curve"/>
      <point x="287" y="39"/>
      <point x="231" y="-8"/>
    </contour>
    <contour>
      <point x="305" y="268" type="curve"/>
      <point x="579" y="268" type="line"/>
      <point x="579" y="270"/>
      <point x="579" y="273"/>
      <point x="579" y="274" type="curve" smooth="yes"/>
      <point x="578" y="423"/>
      <point x="529" y="530"/>
      <point x="445" y="530" type="curve" smooth="yes"/>
      <point x="359" y="530"/>
      <point x="306" y="426"/>
    </contour>
    <contour>
      <point x="167" y="-4" type="curve" smooth="yes"/>
      <point x="228" y="-4"/>
      <point x="286" y="42"/>
      <point x="323" y="102" type="curve"/>
      <point x="309" y="145"/>
      <point x="301" y="199"/>
      <point x="301" y="260" type="curve" smooth="yes"/>
      <point x="301" y="264"/>
      <point x="301" y="273"/>
      <point x="301" y="273" type="curve"/>
      <point x="265" y="299"/>
      <point x="223" y="316"/>
      <point x="172" y="316" type="curve" smooth="yes"/>
      <point x="99" y="316"/>
      <point x="43" y="268"/>
      <point x="43" y="153" type="curve" smooth="yes"/>
      <point x="43" y="36"/>
      <point x="106" y="-4"/>
    </contour>
  </outline>
</glyph>
<glyph name="ccedilla" format="1">
  <advance width="344"/>
  <unicode hex="00E7"/>
  <outline>
    <contour>
      <point x="184" y="-9" type="line"/>
      <point x="101" y="-4"/>
      <point x="45" y="101"/>
      <point x="45" y="262" type="curve" smooth="yes"/>
      <point x="45" y="428"/>
      <point x="104" y="534"/>
      <point x="191" y="534" type="curve" smooth="yes"/>
      <point x="251" y="534"/>
      <point x="284" y="485"/>
      <point x="304" y="431" type="curve"/>
      <point x="300" y="430" type="line"/>
      <point x="280" y="483"/>
      <point x="249" y="530"/>
      <point x="191" y="530" type="curve" smooth="yes"/>
      <point x="107" y="530"/>
      <point x="49" y="426"/>
      <point x="49" y="262" type="curve" smooth="yes"/>
      <point x="49" y="98"/>
      <point x="107" y="-5"/>
      <point x="191" y="-5" type="curve" smooth="yes"/>
      <point x="249" y="-5"/>
      <point x="280" y="42"/>
      <point x="300" y="95" type="curve"/>
      <point x="304" y="94" type="line"/>
      <point x="284" y="40"/>
      <point x="251" y="-9"/>
      <point x="191" y="-9" type="curve" smooth="yes"/>
      <point x="190" y="-9"/>
      <point x="189" y="-9"/>
      <point x="188" y="-9" type="curve"/>
      <point x="163" y="-71" type="line"/>
      <point x="175" y="-61"/>
      <point x="191" y="-56"/>
      <point x="207" y="-56" type="curve" smooth="yes"/>
      <point x="232" y="-56"/>
      <point x="257" y="-71"/>
      <point x="257" y="-107" type="curve" smooth="yes"/>
      <point x="257" y="-153"/>
      <point x="227" y="-179"/>
      <point x="187" y="-179" type="curve" smooth="yes"/>
      <point x="162" y="-179"/>
      <point x="139" y="-170"/>
      <point x="119" y="-150" type="curve"/>
      <point x="122" y="-147" type="line"/>
      <point x="140" y="-166"/>
      <point x="163" y="-175"/>
      <point x="187" y="-175" type="curve" smooth="yes"/>
      <point x="225" y="-175"/>
      <point x="253" y="-151"/>
      <point x="253" y="-107" type="curve" smooth="yes"/>
      <point x="253" y="-74"/>
      <point x="230" y="-60"/>
      <point x="207" y="-60" type="curve" smooth="yes"/>
      <point x="189" y="-60"/>
      <point x="174" y="-66"/>
      <point x="160" y="-78" type="curve"/>
      <point x="157" y="-76" type="line"/>
    </contour>
  </outline>
</glyph>
<glyph name="eth" format="1">
  <advance width="414"/>
  <unicode hex="00F0"/>
  <outline>
    <contour>
      <point x="209" y="-9" type="curve" smooth="yes"/>
      <point x="104" y="-9"/>
      <point x="45" y="102"/>
      <point x="45" y="237" type="curve" smooth="yes"/>
      <point x="45" y="381"/>
      <point x="107" y="483"/>
      <point x="206" y="483" type="curve" smooth="yes"/>
      <point x="285" y="483"/>
      <point x="341" y="435"/>
      <point x="368" y="353" type="curve"/>
      <point x="360" y="430"/>
      <point x="341" y="492"/>
      <point x="321" y="535" type="curve" smooth="yes"/>
      <point x="302" y="576"/>
      <point x="278" y="608"/>
      <point x="254" y="632" type="curve"/>
      <point x="198" y="569" type="line"/>
      <point x="195" y="572" type="line"/>
      <point x="251" y="635" type="line"/>
      <point x="202" y="684"/>
      <point x="151" y="701"/>
      <point x="131" y="707" type="curve"/>
      <point x="133" y="711" type="line"/>
      <point x="153" y="705"/>
      <point x="204" y="687"/>
      <point x="254" y="638" type="curve"/>
      <point x="302" y="692" type="line"/>
      <point x="305" y="689" type="line"/>
      <point x="257" y="635" type="line"/>
      <point x="281" y="610"/>
      <point x="303" y="583"/>
      <point x="324" y="537" type="curve" smooth="yes"/>
      <point x="354" y="472"/>
      <point x="376" y="385"/>
      <point x="376" y="263" type="curve" smooth="yes"/>
      <point x="376" y="138"/>
      <point x="338" y="-9"/>
    </contour>
    <contour>
      <point x="209" y="-5" type="curve" smooth="yes"/>
      <point x="335" y="-5"/>
      <point x="372" y="140"/>
      <point x="372" y="263" type="curve" smooth="yes"/>
      <point x="372" y="289"/>
      <point x="371" y="314"/>
      <point x="369" y="337" type="curve"/>
      <point x="344" y="427"/>
      <point x="287" y="479"/>
      <point x="206" y="479" type="curve" smooth="yes"/>
      <point x="109" y="479"/>
      <point x="49" y="379"/>
      <point x="49" y="237" type="curve" smooth="yes"/>
      <point x="49" y="104"/>
      <point x="106" y="-5"/>
    </contour>
  </outline>
</glyph>
<glyph name="oslash" format="1">
  <advance width="396"/>
  <unicode hex="00F8"/>
  <outline>
    <contour>
      <point x="66" y="-50" type="line"/>
      <point x="103" y="38" type="line"/>
      <point x="65" y="85"/>
      <point x="45" y="163"/>
      <point x="45" y="262" type="curve" smooth="yes"/>
      <point x="45" y="426"/>
      <point x="101" y="534"/>
      <point x="198" y="534" type="curve" smooth="yes"/>
      <point x="235" y="534"/>
      <point x="267" y="518"/>
      <point x="291" y="489" type="curve"/>
      <point x="327" y="575" type="line"/>
      <point x="331" y="575" type="line"/>
      <point x="294" y="486" type="line"/>
      <point x="330" y="439"/>
      <point x="351" y="361"/>
      <point x="351" y="262" type="curve" smooth="yes"/>
      <point x="351" y="98"/>
      <point x="295" y="-9"/>
      <point x="198" y="-9" type="curve" smooth="yes"/>
      <point x="161" y="-9"/>
      <point x="130" y="7"/>
      <point x="105" y="35" type="curve"/>
      <point x="70" y="-50" type="line"/>
    </contour>
    <contour>
      <point x="105" y="43" type="curve"/>
      <point x="289" y="484" type="line"/>
      <point x="266" y="514"/>
      <point x="235" y="530"/>
      <point x="198" y="530" type="curve" smooth="yes"/>
      <point x="104" y="530"/>
      <point x="49" y="424"/>
      <point x="49" y="262" type="curve" smooth="yes"/>
      <point x="49" y="165"/>
      <point x="69" y="87"/>
    </contour>
    <contour>
      <point x="198" y="-5" type="curve" smooth="yes"/>
      <point x="292" y="-5"/>
      <point x="347" y="100"/>
      <point x="347" y="262" type="curve" smooth="yes"/>
      <point x="347" y="358"/>
      <point x="327" y="435"/>
      <point x="292" y="481" type="curve"/>
      <point x="107" y="39" type="line"/>
      <point x="131" y="11"/>
      <point x="161" y="-5"/>
    </contour>
  </outline>
</glyph>
<glyph name="thorn" format="1">
  <advance width="382"/>
  <unicode hex="00FE"/>
  <outline>
    <contour>
      <point x="64" y="-185" type="line"/>
      <point x="64" y="727" type="line"/>
      <point x="68" y="729" type="line"/>
      <point x="68" y="452" type="line"/>
      <point x="101" y="502"/>
      <point x="145" y="534"/>
      <point x="198" y="534" type="curve" smooth="yes"/>
      <point x="280" y="534"/>
      <point x="337" y="466"/>
      <point x="337" y="263" type="curve" smooth="yes"/>
      <point x="337" y="59"/>
      <point x="280" y="-9"/>
      <point x="198" y="-9" type="curve" smooth="yes"/>
      <point x="145" y="-9"/>
      <point x="102" y="23"/>
      <point x="68" y="73" type="curve"/>
      <point x="68" y="-183" type="line"/>
    </contour>
    <contour>
      <point x="198" y="-5" type="curve" smooth="yes"/>
      <point x="277" y="-5"/>
      <point x="333" y="63"/>
      <point x="333" y="263" type="curve" smooth="yes"/>
      <point x="333" y="462"/>
      <point x="277" y="530"/>
      <point x="198" y="530" type="curve" smooth="yes"/>
      <point x="146" y="530"/>
      <point x="101" y="497"/>
      <point x="68" y="445" type="curve"/>
      <point x="68" y="80" type="line"/>
      <point x="101" y="29"/>
      <point x="146" y="-5"/>
    </contour>
  </outline>
</glyph>
<glyph name="Lslash" format="1">
  <advance width="329"/>
  <unicode hex="0141"/>
  <outline>
    <contour>
      <point x="82" y="0" type="line"/>
      <point x="82" y="288" type="line"/>
      <point x="44" y="254" type="line"/>
      <point x="44" y="258" type="line"/>
      <point x="82" y="293" type="line"/>
      <point x="82" y="700" type="line"/>
      <point x="86" y="700" type="line"/>
      <point x="86" y="296" type="line"/>
      <point x="197" y="397" type="line"/>
      <point x="197" y="393" type="line"/>
      <point x="86" y="292" type="line"/>
      <point x="86" y="4" type="line"/>
      <point x="308" y="4" type="line"/>
      <point x="308" y="0" type="line"/>
    </contour>
  </outline>
</glyph>
<glyph name="lslash" format="1">
  <advance width="177"/>
  <unicode hex="0142"/>
  <outline>
    <contour>
      <point x="86" y="0" type="line"/>
      <point x="86" y="302" type="line"/>
      <point x="44" y="264" type="line"/>
      <point x="44" y="268" type="line"/>
      <point x="86" y="307" type="line"/>
      <point x="86" y="727" type="line"/>
      <point x="90" y="729" type="line"/>
      <point x="90" y="311" type="line"/>
      <point x="133" y="351" type="line"/>
      <point x="133" y="346" type="line"/>
      <point x="90" y="306" type="line"/>
      <point x="90" y="0" type="line"/>
    </contour>
  </outline>
</glyph>
<glyph name="OE" format="1">
  <advance width="687"/>
  <unicode hex="0152"/>
  <outline>
    <contour>
      <point x="236" y="-9" type="curve" smooth="yes"/>
      <point x="132" y="-9"/>
      <point x="56" y="93"/>
      <point x="56" y="350" type="curve" smooth="yes"/>
      <point x="56" y="607"/>
      <point x="132" y="709"/>
      <point x="236" y="709" type="curve" smooth="yes"/>
      <point x="326" y="709"/>
      <point x="394" y="632"/>
      <point x="411" y="450" type="curve"/>
      <point x="411" y="700" type="line"/>
      <point x="649" y="700" type="line"/>
      <point x="649" y="696" type="line"/>
      <point x="415" y="696" type="line"/>
      <point x="415" y="376" type="line"/>
      <point x="570" y="376" type="line"/>
      <point x="570" y="372" type="line"/>
      <point x="415" y="372" type="line"/>
      <point x="415" y="4" type="line"/>
      <point x="661" y="4" type="line"/>
      <point x="661" y="0" type="line"/>
      <point x="411" y="0" type="line"/>
      <point x="411" y="249" type="line"/>
      <point x="391" y="65"/>
      <point x="325" y="-9"/>
    </contour>
    <contour>
      <point x="236" y="-5" type="curve" smooth="yes"/>
      <point x="338" y="-5"/>
      <point x="411" y="97"/>
      <point x="411" y="350" type="curve" smooth="yes"/>
      <point x="411" y="603"/>
      <point x="338" y="705"/>
      <point x="236" y="705" type="curve" smooth="yes"/>
      <point x="134" y="705"/>
      <point x="60" y="603"/>
      <point x="60" y="350" type="curve" smooth="yes"/>
      <point x="60" y="97"/>
      <point x="134" y="-5"/>
    </contour>
  </outline>
</glyph>
<glyph name="oe" format="1">
  <advance width="677"/>
  <unicode hex="0153"/>
  <outline>
    <contour>
      <point x="198" y="-9" type="curve" smooth="yes"/>
      <point x="101" y="-9"/>
      <point x="45" y="98"/>
      <point x="45" y="262" type="curve" smooth="yes"/>
      <point x="45" y="426"/>
      <point x="101" y="534"/>
      <point x="198" y="534" type="curve" smooth="yes"/>
      <point x="284" y="534"/>
      <point x="338" y="449"/>
      <point x="350" y="313" type="curve"/>
      <point x="358" y="446"/>
      <point x="412" y="534"/>
      <point x="492" y="534" type="curve" smooth="yes"/>
      <point x="579" y="534"/>
      <point x="630" y="424"/>
      <point x="630" y="272" type="curve" smooth="yes"/>
      <point x="630" y="270"/>
      <point x="630" y="265"/>
      <point x="630" y="264" type="curve"/>
      <point x="352" y="264" type="line"/>
      <point x="352" y="249"/>
      <point x="352" y="263"/>
      <point x="352" y="262" type="curve" smooth="yes"/>
      <point x="352" y="100"/>
      <point x="404" y="-5"/>
      <point x="491" y="-5" type="curve" smooth="yes"/>
      <point x="549" y="-5"/>
      <point x="584" y="24"/>
      <point x="612" y="80" type="curve"/>
      <point x="615" y="78" type="line"/>
      <point x="587" y="19"/>
      <point x="549" y="-9"/>
      <point x="491" y="-9" type="curve" smooth="yes"/>
      <point x="409" y="-9"/>
      <point x="360" y="80"/>
      <point x="349" y="211" type="curve"/>
      <point x="339" y="75"/>
      <point x="284" y="-9"/>
    </contour>
    <contour>
      <point x="352" y="268" type="curve"/>
      <point x="626" y="268" type="line"/>
      <point x="626" y="270"/>
      <point x="626" y="273"/>
      <point x="626" y="274" type="curve" smooth="yes"/>
      <point x="625" y="423"/>
      <point x="576" y="530"/>
      <point x="492" y="530" type="curve" smooth="yes"/>
      <point x="406" y="530"/>
      <point x="353" y="426"/>
    </contour>
    <contour>
      <point x="198" y="-5" type="curve" smooth="yes"/>
      <point x="292" y="-5"/>
      <point x="347" y="100"/>
      <point x="347" y="262" type="curve" smooth="yes"/>
      <point x="347" y="424"/>
      <point x="292" y="530"/>
      <point x="198" y="530" type="curve" smooth="yes"/>
      <point x="104" y="530"/>
      <point x="49" y="424"/>
      <point x="49" y="262" type="curve" smooth="yes"/>
      <point x="49" y="100"/>
      <point x="104" y="-5"/>
    </contour>
  </outline>
</glyph>
<glyph name="florin" format="1">
  <advance width="233"/>
  <unicode hex="0192"/>
  <outline>
    <contour>
      <point x="91" y="-185" type="line"/>
      <point x="91" y="508" type="line"/>
      <point x="28" y="508" type="line"/>
      <point x="28" y="512" type="line"/>
      <point x="91" y="512" type="line"/>
      <point x="91" y="609" type="line" smooth="yes"/>
      <point x="91" y="682"/>
      <point x="126" y="707"/>
      <point x="169" y="707" type="curve" smooth="yes"/>
      <point x="191" y="707"/>
      <point x="203" y="704"/>
      <point x="216" y="700" type="curve"/>
      <point x="214" y="696" type="line"/>
      <point x="202" y="701"/>
      <point x="190" y="703"/>
      <point x="169" y="703" type="curve" smooth="yes"/>
      <point x="128" y="703"/>
      <point x="95" y="679"/>
      <point x="95" y="609" type="curve" smooth="yes"/>
      <point x="95" y="512" type="line"/>
      <point x="203" y="512" type="line"/>
      <point x="203" y="508" type="line"/>
      <point x="95" y="508" type="line"/>
      <point x="95" y="-183" type="line"/>
    </contour>
  </outline>
</glyph>
<glyph name="circumflex" format="1">
  <advance width="383"/>
  <unicode hex="02C6"/>
  <outline>
    <contour>
      <point x="93" y="599" type="line"/>
      <point x="190" y="748" type="line"/>
      <point x="194" y="748" type="line"/>
      <point x="291" y="599" type="line"/>
      <point x="287" y="599" type="line"/>
      <point x="192" y="745" type="line"/>
      <point x="97" y="599" type="line"/>
    </contour>
  </outline>
</glyph>
<glyph name="caron" format="1">
  <advance width="383"/>
  <unicode hex="02C7"/>
  <outline>
    <contour>
      <point x="291" y="748" type="line"/>
      <point x="194" y="599" type="line"/>
      <point x="190" y="599" type="line"/>
      <point x="93" y="748" type="line"/>
      <point x="97" y="748" type="line"/>
      <point x="192" y="602" type="line"/>
      <point x="287" y="748" type="line"/>
    </contour>
  </outline>
</glyph>
<glyph name="breve" format="1">
  <advance width="383"/>
  <unicode hex="02D8"/>
  <outline>
    <contour>
      <point x="182" y="599" type="curve" smooth="yes"/>
      <point x="117" y="599"/>
      <point x="88" y="652"/>
      <point x="84" y="729" type="curve"/>
      <point x="88" y="729" type="line"/>
      <point x="92" y="654"/>
      <point x="119" y="603"/>
      <point x="182" y="603" type="curve" smooth="yes"/>
      <point x="245" y="603"/>
      <point x="272" y="654"/>
      <point x="276" y="729" type="curve"/>
      <point x="280" y="729" type="line"/>
      <point x="276" y="652"/>
      <point x="247" y="599"/>
    </contour>
  </outline>
</glyph>
<glyph name="dotaccent" format="1">
  <advance width="383"/>
  <unicode hex="02D9"/>
  <outline>
    <contour>
      <point x="190" y="614" type="line"/>
      <point x="190" y="684" type="line"/>
      <point x="194" y="684" type="line"/>
      <point x="194" y="614" type="line"/>
    </contour>
  </outline>
</glyph>
<glyph name="ring" format="1">
  <advance width="383"/>
  <unicode hex="02DA"/>
  <outline>
    <contour>
      <point x="192" y="614" type="curve" smooth="yes"/>
      <point x="152" y="614"/>
      <point x="120" y="646"/>
      <point x="120" y="686" type="curve" smooth="yes"/>
      <point x="120" y="726"/>
      <point x="152" y="758"/>
      <point x="192" y="758" type="curve" smooth="yes"/>
      <point x="232" y="758"/>
      <point x="264" y="726"/>
      <point x="264" y="686" type="curve" smooth="yes"/>
      <point x="264" y="646"/>
      <point x="232" y="614"/>
    </contour>
    <contour>
      <point x="192" y="618" type="curve" smooth="yes"/>
      <point x="230" y="618"/>
      <point x="260" y="648"/>
      <point x="260" y="686" type="curve" smooth="yes"/>
      <point x="260" y="724"/>
      <point x="230" y="754"/>
      <point x="192" y="754" type="curve" smooth="yes"/>
      <point x="154" y="754"/>
      <point x="124" y="724"/>
      <point x="124" y="686" type="curve" smooth="yes"/>
      <point x="124" y="648"/>
      <point x="154" y="618"/>
    </contour>
  </outline>
</glyph>
<glyph name="ogonek" format="1">
  <advance width="383"/>
  <unicode hex="02DB"/>
  <outline>
    <contour>
      <point x="291" y="-154" type="line"/>
      <point x="276" y="-170"/>
      <point x="241" y="-192"/>
      <point x="205" y="-192" type="curve" smooth="yes"/>
      <point x="160" y="-192"/>
      <point x="130" y="-163"/>
      <point x="130" y="-118" type="curve" smooth="yes"/>
      <point x="130" y="-70"/>
      <point x="167" y="-26"/>
      <point x="198" y="0" type="curve"/>
      <point x="200" y="-4" type="line"/>
      <point x="171" y="-28"/>
      <point x="134" y="-72"/>
      <point x="134" y="-118" type="curve" smooth="yes"/>
      <point x="134" y="-161"/>
      <point x="162" y="-188"/>
      <point x="205" y="-188" type="curve" smooth="yes"/>
      <point x="240" y="-188"/>
      <point x="274" y="-166"/>
      <point x="289" y="-151" type="curve"/>
    </contour>
  </outline>
</glyph>
<glyph name="tilde" format="1">
  <advance width="374"/>
  <unicode hex="02DC"/>
  <outline>
    <contour>
      <point x="244" y="604" type="curve" smooth="yes"/>
      <point x="219" y="604"/>
      <point x="202" y="625"/>
      <point x="184" y="646" type="curve" smooth="yes"/>
      <point x="167" y="666"/>
      <point x="150" y="687"/>
      <point x="127" y="687" type="curve" smooth="yes"/>
      <point x="99" y="687"/>
      <point x="79" y="658"/>
      <point x="76" y="607" type="curve"/>
      <point x="72" y="607" type="line"/>
      <point x="75" y="660"/>
      <point x="97" y="691"/>
      <point x="127" y="691" type="curve" smooth="yes"/>
      <point x="152" y="691"/>
      <point x="169" y="669"/>
      <point x="187" y="648" type="curve" smooth="yes"/>
      <point x="206" y="626"/>
      <point x="221" y="608"/>
      <point x="244" y="608" type="curve" smooth="yes"/>
      <point x="273" y="608"/>
      <point x="295" y="638"/>
      <point x="298" y="691" type="curve"/>
      <point x="302" y="691" type="line"/>
      <point x="299" y="636"/>
      <point x="275" y="604"/>
    </contour>
  </outline>
</glyph>
<glyph name="hungarumlaut" format="1">
  <advance width="383"/>
  <unicode hex="02DD"/>
  <outline>
    <contour>
      <point x="204" y="599" type="line"/>
      <point x="292" y="748" type="line"/>
      <point x="296" y="748" type="line"/>
      <point x="208" y="599" type="line"/>
    </contour>
    <contour>
      <point x="90" y="599" type="line"/>
      <point x="178" y="748" type="line"/>
      <point x="182" y="748" type="line"/>
      <point x="94" y="599" type="line"/>
    </contour>
  </outline>
</glyph>
<glyph name="endash" format="1">
  <advance width="306"/>
  <unicode hex="2013"/>
  <outline>
    <contour>
      <point x="34" y="361" type="line"/>
      <point x="34" y="365" type="line"/>
      <point x="272" y="365" type="line"/>
      <point x="272" y="361" type="line"/>
    </contour>
  </outline>
</glyph>
<glyph name="emdash" format="1">
  <advance width="437"/>
  <unicode hex="2014"/>
  <outline>
    <contour>
      <point x="34" y="361" type="line"/>
      <point x="34" y="365" type="line"/>
      <point x="403" y="365" type="line"/>
      <point x="403" y="361" type="line"/>
    </contour>
  </outline>
</glyph>
<glyph name="quoteleft" format="1">
  <advance width="105"/>
  <unicode hex="2018"/>
  <unicode hex="02BB"/>
  <outline>
    <contour>
      <point x="40" y="550" type="line"/>
      <point x="61" y="700" type="line"/>
      <point x="65" y="700" type="line"/>
      <point x="44" y="550" type="line"/>
    </contour>
  </outline>
</glyph>
<glyph name="quoteright" format="1">
  <advance width="105"/>
  <unicode hex="2019"/>
  <unicode hex="02BC"/>
  <outline>
    <contour>
      <point x="40" y="550" type="line"/>
      <point x="61" y="700" type="line"/>
      <point x="65" y="700" type="line"/>
      <point x="44" y="550" type="line"/>
    </contour>
  </outline>
</glyph>
<glyph name="quotesinglbase" format="1">
  <advance width="105"/>
  <unicode hex="201A"/>
  <outline>
    <contour>
      <point x="32" y="-90" type="line"/>
      <point x="53" y="60" type="line"/>
      <point x="57" y="60" type="line"/>
      <point x="36" y="-90" type="line"/>
    </contour>
  </outline>
</glyph>
<glyph name="quotedblright" format="1">
  <advance width="207"/>
  <unicode hex="201D"/>
  <outline>
    <contour>
      <point x="143" y="550" type="line"/>
      <point x="164" y="700" type="line"/>
      <point x="168" y="700" type="line"/>
      <point x="147" y="550" type="line"/>
    </contour>
    <contour>
      <point x="40" y="550" type="line"/>
      <point x="61" y="700" type="line"/>
      <point x="65" y="700" type="line"/>
      <point x="44" y="550" type="line"/>
    </contour>
  </outline>
</glyph>
<glyph name="quotedblbase" format="1">
  <advance width="254"/>
  <unicode hex="201E"/>
  <outline>
    <contour>
      <point x="181" y="-90" type="line"/>
      <point x="202" y="60" type="line"/>
      <point x="206" y="60" type="line"/>
      <point x="185" y="-90" type="line"/>
    </contour>
    <contour>
      <point x="32" y="-90" type="line"/>
      <point x="53" y="60" type="line"/>
      <point x="57" y="60" type="line"/>
      <point x="36" y="-90" type="line"/>
    </contour>
  </outline>
</glyph>
<glyph name="dagger" format="1">
  <advance width="340"/>
  <unicode hex="2020"/>
  <outline>
    <contour>
      <point x="168" y="-100" type="line"/>
      <point x="168" y="429" type="line"/>
      <point x="24" y="429" type="line"/>
      <point x="24" y="433" type="line"/>
      <point x="168" y="433" type="line"/>
      <point x="168" y="700" type="line"/>
      <point x="172" y="700" type="line"/>
      <point x="172" y="433" type="line"/>
      <point x="316" y="433" type="line"/>
      <point x="316" y="429" type="line"/>
      <point x="172" y="429" type="line"/>
      <point x="172" y="-100" type="line"/>
    </contour>
  </outline>
</glyph>
<glyph name="daggerdbl" format="1">
  <advance width="340"/>
  <unicode hex="2021"/>
  <outline>
    <contour>
      <point x="168" y="-100" type="line"/>
      <point x="168" y="166" type="line"/>
      <point x="27" y="166" type="line"/>
      <point x="27" y="170" type="line"/>
      <point x="168" y="170" type="line"/>
      <point x="168" y="429" type="line"/>
      <point x="27" y="429" type="line"/>
      <point x="27" y="433" type="line"/>
      <point x="168" y="433" type="line"/>
      <point x="168" y="700" type="line"/>
      <point x="172" y="700" type="line"/>
      <point x="172" y="433" type="line"/>
      <point x="313" y="433" type="line"/>
      <point x="313" y="429" type="line"/>
      <point x="172" y="429" type="line"/>
      <point x="172" y="170" type="line"/>
      <point x="313" y="170" type="line"/>
      <point x="313" y="166" type="line"/>
      <point x="172" y="166" type="line"/>
      <point x="172" y="-100" type="line"/>
    </contour>
  </outline>
</glyph>
<glyph name="ellipsis" format="1">
  <advance width="330"/>
  <unicode hex="2026"/>
  <outline>
    <contour>
      <point x="276" y="0" type="line"/>
      <point x="276" y="60" type="line"/>
      <point x="280" y="60" type="line"/>
      <point x="280" y="0" type="line"/>
    </contour>
    <contour>
      <point x="163" y="0" type="line"/>
      <point x="163" y="60" type="line"/>
      <point x="167" y="60" type="line"/>
      <point x="167" y="0" type="line"/>
    </contour>
    <contour>
      <point x="50" y="0" type="line"/>
      <point x="50" y="60" type="line"/>
      <point x="54" y="60" type="line"/>
      <point x="54" y="0" type="line"/>
    </contour>
  </outline>
</glyph>
<glyph name="perthousand" format="1">
  <advance width="827"/>
  <unicode hex="2030"/>
  <outline>
    <contour>
      <point x="140" y="331" type="curve" smooth="yes"/>
      <point x="78" y="331"/>
      <point x="40" y="399"/>
      <point x="40" y="519" type="curve" smooth="yes"/>
      <point x="40" y="639"/>
      <point x="79" y="709"/>
      <point x="141" y="709" type="curve" smooth="yes"/>
      <point x="203" y="709"/>
      <point x="241" y="640"/>
      <point x="241" y="520" type="curve" smooth="yes"/>
      <point x="241" y="400"/>
      <point x="202" y="331"/>
    </contour>
    <contour>
      <point x="114" y="0" type="line"/>
      <point x="453" y="700" type="line"/>
      <point x="457" y="700" type="line"/>
      <point x="118" y="0" type="line"/>
    </contour>
    <contour>
      <point x="694" y="-9" type="curve" smooth="yes"/>
      <point x="633" y="-9"/>
      <point x="594" y="60"/>
      <point x="594" y="180" type="curve" smooth="yes"/>
      <point x="594" y="300"/>
      <point x="634" y="369"/>
      <point x="695" y="369" type="curve" smooth="yes"/>
      <point x="757" y="369"/>
      <point x="795" y="301"/>
      <point x="795" y="181" type="curve" smooth="yes"/>
      <point x="795" y="61"/>
      <point x="756" y="-9"/>
    </contour>
    <contour>
      <point x="430" y="-9" type="curve" smooth="yes"/>
      <point x="368" y="-9"/>
      <point x="330" y="60"/>
      <point x="330" y="180" type="curve" smooth="yes"/>
      <point x="330" y="300"/>
      <point x="369" y="369"/>
      <point x="431" y="369" type="curve" smooth="yes"/>
      <point x="493" y="369"/>
      <point x="531" y="301"/>
      <point x="531" y="181" type="curve" smooth="yes"/>
      <point x="531" y="61"/>
      <point x="491" y="-9"/>
    </contour>
    <contour>
      <point x="140" y="335" type="curve" smooth="yes"/>
      <point x="200" y="335"/>
      <point x="237" y="403"/>
      <point x="237" y="520" type="curve" smooth="yes"/>
      <point x="237" y="637"/>
      <point x="201" y="705"/>
      <point x="141" y="705" type="curve" smooth="yes"/>
      <point x="81" y="705"/>
      <point x="44" y="636"/>
      <point x="44" y="519" type="curve" smooth="yes"/>
      <point x="44" y="402"/>
      <point x="80" y="335"/>
    </contour>
    <contour>
      <point x="694" y="-5" type="curve" smooth="yes"/>
      <point x="754" y="-5"/>
      <point x="791" y="64"/>
      <point x="791" y="181" type="curve" smooth="yes"/>
      <point x="791" y="298"/>
      <point x="755" y="365"/>
      <point x="695" y="365" type="curve" smooth="yes"/>
      <point x="636" y="365"/>
      <point x="598" y="297"/>
      <point x="598" y="180" type="curve" smooth="yes"/>
      <point x="598" y="63"/>
      <point x="635" y="-5"/>
    </contour>
    <contour>
      <point x="430" y="-5" type="curve" smooth="yes"/>
      <point x="489" y="-5"/>
      <point x="527" y="64"/>
      <point x="527" y="181" type="curve" smooth="yes"/>
      <point x="527" y="298"/>
      <point x="491" y="365"/>
      <point x="431" y="365" type="curve" smooth="yes"/>
      <point x="371" y="365"/>
      <point x="334" y="297"/>
      <point x="334" y="180" type="curve" smooth="yes"/>
      <point x="334" y="63"/>
      <point x="370" y="-5"/>
    </contour>
  </outline>
</glyph>
<glyph name="guilsinglleft" format="1">
  <advance width="231"/>
  <unicode hex="2039"/>
  <outline>
    <contour>
      <point x="183" y="0" type="line"/>
      <point x="30" y="261" type="line"/>
      <point x="30" y="263" type="line"/>
      <point x="183" y="525" type="line"/>
      <point x="188" y="525" type="line"/>
      <point x="34" y="262" type="line"/>
      <point x="188" y="0" type="line"/>
    </contour>
  </outline>
</glyph>
<glyph name="guilsinglright" format="1">
  <advance width="231"/>
  <unicode hex="203A"/>
  <outline>
    <contour>
      <point x="44" y="0" type="line"/>
      <point x="197" y="262" type="line"/>
      <point x="44" y="525" type="line"/>
      <point x="49" y="525" type="line"/>
      <point x="201" y="263" type="line"/>
      <point x="201" y="261" type="line"/>
      <point x="49" y="0" type="line"/>
    </contour>
  </outline>
</glyph>
<glyph name="fraction" format="1">
  <advance width="296"/>
  <unicode hex="2044"/>
  <outline>
    <contour>
      <point x="-28" y="0" type="line"/>
      <point x="319" y="700" type="line"/>
      <point x="324" y="700" type="line"/>
      <point x="-23" y="0" type="line"/>
    </contour>
  </outline>
</glyph>
<glyph name="Euro" format="1">
  <advance width="398"/>
  <unicode hex="20AC"/>
  <outline>
    <contour>
      <point x="62" y="285" type="curve"/>
      <point x="238" y="285" type="line"/>
      <point x="238" y="281" type="line"/>
      <point x="62" y="281" type="line"/>
      <point x="74" y="81"/>
      <point x="142" y="-5"/>
      <point x="228" y="-5" type="curve" smooth="yes"/>
      <point x="319" y="-5"/>
      <point x="348" y="96"/>
      <point x="356" y="126" type="curve"/>
      <point x="360" y="126" type="line"/>
      <point x="352" y="94"/>
      <point x="321" y="-9"/>
      <point x="228" y="-9" type="curve" smooth="yes"/>
      <point x="130" y="-9"/>
      <point x="56" y="96"/>
      <point x="56" y="350" type="curve" smooth="yes"/>
      <point x="56" y="604"/>
      <point x="130" y="709"/>
      <point x="228" y="709" type="curve" smooth="yes"/>
      <point x="321" y="709"/>
      <point x="352" y="606"/>
      <point x="360" y="575" type="curve"/>
      <point x="356" y="574" type="line"/>
      <point x="348" y="603"/>
      <point x="319" y="705"/>
      <point x="228" y="705" type="curve" smooth="yes"/>
      <point x="141" y="705"/>
      <point x="74" y="619"/>
      <point x="62" y="418" type="curve"/>
      <point x="238" y="418" type="line"/>
      <point x="238" y="414" type="line"/>
      <point x="62" y="414" type="line"/>
      <point x="61" y="394"/>
      <point x="60" y="373"/>
      <point x="60" y="350" type="curve" smooth="yes"/>
      <point x="60" y="327"/>
      <point x="61" y="305"/>
    </contour>
  </outline>
</glyph>
<glyph name="uni2117" format="1">
  <advance width="589"/>
  <unicode hex="2117"/>
  <outline>
    <contour>
      <point x="294" y="-9" type="curve" smooth="yes"/>
      <point x="140" y="-9"/>
      <point x="45" y="148"/>
      <point x="45" y="351" type="curve" smooth="yes"/>
      <point x="45" y="554"/>
      <point x="140" y="712"/>
      <point x="294" y="712" type="curve" smooth="yes"/>
      <point x="448" y="712"/>
      <point x="544" y="554"/>
      <point x="544" y="351" type="curve" smooth="yes"/>
      <point x="544" y="148"/>
      <point x="448" y="-9"/>
    </contour>
    <contour>
      <point x="294" y="-5" type="curve" smooth="yes"/>
      <point x="446" y="-5"/>
      <point x="540" y="150"/>
      <point x="540" y="351" type="curve" smooth="yes"/>
      <point x="540" y="552"/>
      <point x="446" y="708"/>
      <point x="294" y="708" type="curve" smooth="yes"/>
      <point x="142" y="708"/>
      <point x="49" y="552"/>
      <point x="49" y="351" type="curve" smooth="yes"/>
      <point x="49" y="150"/>
      <point x="142" y="-5"/>
    </contour>
    <contour>
      <point x="231" y="143" type="line"/>
      <point x="231" y="547" type="line"/>
      <point x="287" y="547" type="line" smooth="yes"/>
      <point x="352" y="547"/>
      <point x="394" y="523"/>
      <point x="394" y="445" type="curve" smooth="yes"/>
      <point x="394" y="369"/>
      <point x="353" y="338"/>
      <point x="284" y="338" type="curve" smooth="yes"/>
      <point x="235" y="338" type="line"/>
      <point x="235" y="143" type="line"/>
    </contour>
    <contour>
      <point x="235" y="342" type="line"/>
      <point x="284" y="342" type="line" smooth="yes"/>
      <point x="352" y="342"/>
      <point x="390" y="372"/>
      <point x="390" y="445" type="curve" smooth="yes"/>
      <point x="390" y="520"/>
      <point x="351" y="543"/>
      <point x="288" y="543" type="curve" smooth="yes"/>
      <point x="235" y="543" type="line"/>
    </contour>
  </outline>
</glyph>
<glyph name="trademark" format="1">
  <advance width="544"/>
  <unicode hex="2122"/>
  <outline>
    <contour>
      <point x="109" y="299" type="line"/>
      <point x="109" y="696" type="line"/>
      <point x="14" y="696" type="line"/>
      <point x="14" y="700" type="line"/>
      <point x="206" y="700" type="line"/>
      <point x="206" y="696" type="line"/>
      <point x="113" y="696" type="line"/>
      <point x="113" y="299" type="line"/>
    </contour>
    <contour>
      <point x="267" y="299" type="line"/>
      <point x="267" y="700" type="line"/>
      <point x="272" y="700" type="line"/>
      <point x="385" y="305" type="line"/>
      <point x="498" y="700" type="line"/>
      <point x="503" y="700" type="line"/>
      <point x="503" y="299" type="line"/>
      <point x="499" y="299" type="line"/>
      <point x="499" y="690" type="line"/>
      <point x="387" y="297" type="line"/>
      <point x="383" y="297" type="line"/>
      <point x="271" y="690" type="line"/>
      <point x="271" y="299" type="line"/>
    </contour>
  </outline>
</glyph>
<glyph name="arrowleft" format="1">
  <advance width="368"/>
  <unicode hex="2190"/>
  <outline>
    <contour>
      <point x="140" y="258" type="line"/>
      <point x="28" y="350" type="line"/>
      <point x="140" y="442" type="line"/>
      <point x="142" y="438" type="line"/>
      <point x="36" y="352" type="line"/>
      <point x="335" y="352" type="line"/>
      <point x="335" y="348" type="line"/>
      <point x="36" y="348" type="line"/>
      <point x="142" y="262" type="line"/>
    </contour>
  </outline>
</glyph>
<glyph name="arrowup" format="1">
  <advance width="289"/>
  <unicode hex="2191"/>
  <outline>
    <contour>
      <point x="143" y="0" type="line"/>
      <point x="143" y="702" type="line"/>
      <point x="57" y="597" type="line"/>
      <point x="53" y="599" type="line"/>
      <point x="145" y="711" type="line"/>
      <point x="236" y="599" type="line"/>
      <point x="232" y="597" type="line"/>
      <point x="147" y="702" type="line"/>
      <point x="147" y="0" type="line"/>
    </contour>
  </outline>
</glyph>
<glyph name="arrowright" format="1">
  <advance width="368"/>
  <unicode hex="2192"/>
  <outline>
    <contour>
      <point x="228" y="258" type="line"/>
      <point x="226" y="262" type="line"/>
      <point x="332" y="348" type="line"/>
      <point x="33" y="348" type="line"/>
      <point x="33" y="352" type="line"/>
      <point x="332" y="352" type="line"/>
      <point x="226" y="438" type="line"/>
      <point x="228" y="442" type="line"/>
      <point x="340" y="350" type="line"/>
    </contour>
  </outline>
</glyph>
<glyph name="arrowdown" format="1">
  <advance width="289"/>
  <unicode hex="2193"/>
  <outline>
    <contour>
      <point x="145" y="-11" type="line"/>
      <point x="53" y="101" type="line"/>
      <point x="57" y="103" type="line"/>
      <point x="143" y="-2" type="line"/>
      <point x="143" y="704" type="line"/>
      <point x="147" y="704" type="line"/>
      <point x="147" y="-2" type="line"/>
      <point x="232" y="103" type="line"/>
      <point x="236" y="101" type="line"/>
    </contour>
  </outline>
</glyph>
<glyph name="arrowboth" format="1">
  <advance width="538"/>
  <unicode hex="2194"/>
  <outline>
    <contour>
      <point x="132" y="258" type="line"/>
      <point x="20" y="350" type="line"/>
      <point x="132" y="442" type="line"/>
      <point x="134" y="438" type="line"/>
      <point x="28" y="352" type="line"/>
      <point x="509" y="352" type="line"/>
      <point x="404" y="438" type="line"/>
      <point x="406" y="442" type="line"/>
      <point x="518" y="350" type="line"/>
      <point x="406" y="258" type="line"/>
      <point x="404" y="262" type="line"/>
      <point x="509" y="348" type="line"/>
      <point x="28" y="348" type="line"/>
      <point x="134" y="262" type="line"/>
    </contour>
  </outline>
</glyph>
<glyph name="arrowupdn" format="1">
  <advance width="289"/>
  <unicode hex="2195"/>
  <outline>
    <contour>
      <point x="145" y="-11" type="line"/>
      <point x="53" y="101" type="line"/>
      <point x="57" y="103" type="line"/>
      <point x="143" y="-2" type="line"/>
      <point x="143" y="702" type="line"/>
      <point x="57" y="597" type="line"/>
      <point x="53" y="599" type="line"/>
      <point x="145" y="711" type="line"/>
      <point x="236" y="599" type="line"/>
      <point x="232" y="597" type="line"/>
      <point x="147" y="702" type="line"/>
      <point x="147" y="-2" type="line"/>
      <point x="232" y="103" type="line"/>
      <point x="236" y="101" type="line"/>
    </contour>
  </outline>
</glyph>
<glyph name="radical" format="1">
  <advance width="372"/>
  <unicode hex="221A"/>
  <outline>
    <contour>
      <point x="155" y="-3" type="line"/>
      <point x="27" y="339" type="line"/>
      <point x="31" y="341" type="line"/>
      <point x="157" y="4" type="line"/>
      <point x="342" y="700" type="line"/>
      <point x="346" y="700" type="line"/>
      <point x="159" y="-3" type="line"/>
    </contour>
  </outline>
</glyph>
<glyph name="apple" format="1">
  <advance width="538"/>
  <unicode hex="F8FF"/>
  <outline>
    <contour>
      <point x="269" y="-11" type="line"/>
      <point x="177" y="101" type="line"/>
      <point x="181" y="102" type="line"/>
      <point x="267" y="-3" type="line"/>
      <point x="267" y="348" type="line"/>
      <point x="27" y="348" type="line"/>
      <point x="133" y="262" type="line"/>
      <point x="132" y="258" type="line"/>
      <point x="20" y="350" type="line"/>
      <point x="132" y="442" type="line"/>
      <point x="133" y="438" type="line"/>
      <point x="27" y="352" type="line"/>
      <point x="267" y="352" type="line"/>
      <point x="267" y="703" type="line"/>
      <point x="181" y="598" type="line"/>
      <point x="177" y="599" type="line"/>
      <point x="269" y="711" type="line"/>
      <point x="360" y="599" type="line"/>
      <point x="356" y="598" type="line"/>
      <point x="271" y="703" type="line"/>
      <point x="271" y="352" type="line"/>
      <point x="510" y="352" type="line"/>
      <point x="405" y="438" type="line"/>
      <point x="406" y="442" type="line"/>
      <point x="518" y="350" type="line"/>
      <point x="406" y="258" type="line"/>
      <point x="405" y="262" type="line"/>
      <point x="510" y="348" type="line"/>
      <point x="271" y="348" type="line"/>
      <point x="271" y="-3" type="line"/>
      <point x="356" y="102" type="line"/>
      <point x="360" y="101" type="line"/>
    </contour>
  </outline>
</glyph>
<glyph name="bullet" format="1">
  <advance width="190"/>
  <outline>
    <contour>
      <point x="95" y="335" type="curve" smooth="yes"/>
      <point x="77" y="335"/>
      <point x="64" y="349"/>
      <point x="64" y="366" type="curve" smooth="yes"/>
      <point x="64" y="383"/>
      <point x="77" y="398"/>
      <point x="95" y="398" type="curve" smooth="yes"/>
      <point x="112" y="398"/>
      <point x="126" y="383"/>
      <point x="126" y="366" type="curve" smooth="yes"/>
      <point x="126" y="349"/>
      <point x="112" y="335"/>
    </contour>
  </outline>
</glyph>
<glyph name="macron" format="1">
  <advance width="383"/>
  <outline>
    <contour>
      <point x="77" y="640" type="line"/>
      <point x="77" y="644" type="line"/>
      <point x="306" y="644" type="line"/>
      <point x="306" y="640" type="line"/>
    </contour>
  </outline>
</glyph>
<glyph name="registered" format="1">
  <advance width="589"/>
  <outline>
    <contour>
      <point x="294" y="-9" type="curve" smooth="yes"/>
      <point x="140" y="-9"/>
      <point x="45" y="148"/>
      <point x="45" y="351" type="curve" smooth="yes"/>
      <point x="45" y="554"/>
      <point x="140" y="712"/>
      <point x="294" y="712" type="curve" smooth="yes"/>
      <point x="448" y="712"/>
      <point x="544" y="554"/>
      <point x="544" y="351" type="curve" smooth="yes"/>
      <point x="544" y="148"/>
      <point x="448" y="-9"/>
    </contour>
    <contour>
      <point x="294" y="-5" type="curve" smooth="yes"/>
      <point x="446" y="-5"/>
      <point x="540" y="150"/>
      <point x="540" y="351" type="curve" smooth="yes"/>
      <point x="540" y="552"/>
      <point x="446" y="708"/>
      <point x="294" y="708" type="curve" smooth="yes"/>
      <point x="142" y="708"/>
      <point x="49" y="552"/>
      <point x="49" y="351" type="curve" smooth="yes"/>
      <point x="49" y="150"/>
      <point x="142" y="-5"/>
    </contour>
    <contour>
      <point x="222" y="156" type="line"/>
      <point x="222" y="559" type="line"/>
      <point x="276" y="559" type="line" smooth="yes"/>
      <point x="341" y="559"/>
      <point x="384" y="538"/>
      <point x="384" y="460" type="curve" smooth="yes"/>
      <point x="384" y="398"/>
      <point x="357" y="367"/>
      <point x="309" y="358" type="curve"/>
      <point x="385" y="156" type="line"/>
      <point x="381" y="156" type="line"/>
      <point x="305" y="357" type="line"/>
      <point x="296" y="356"/>
      <point x="284" y="355"/>
      <point x="273" y="355" type="curve" smooth="yes"/>
      <point x="226" y="355" type="line"/>
      <point x="226" y="156" type="line"/>
    </contour>
    <contour>
      <point x="226" y="359" type="line"/>
      <point x="273" y="359" type="line" smooth="yes"/>
      <point x="342" y="359"/>
      <point x="380" y="386"/>
      <point x="380" y="460" type="curve" smooth="yes"/>
      <point x="380" y="535"/>
      <point x="340" y="555"/>
      <point x="276" y="555" type="curve" smooth="yes"/>
      <point x="226" y="555" type="line"/>
    </contour>
  </outline>
</glyph>
